<?xml version="1.0" encoding="utf-8"?>
<!-- Generator: Adobe Illustrator 16.0.0, SVG Export Plug-In . SVG Version: 6.00 Build 0)  -->
<!DOCTYPE svg PUBLIC "-//W3C//DTD SVG 1.1//EN" "http://www.w3.org/Graphics/SVG/1.1/DTD/svg11.dtd">
<svg version="1.1" id="Capa_1" xmlns="http://www.w3.org/2000/svg" xmlns:xlink="http://www.w3.org/1999/xlink" x="0px" y="0px"
	 width="16px" height="16px" viewBox="0 0 16 16" enable-background="new 0 0 16 16" xml:space="preserve">
<g>
	<g>
		<path fill-rule="evenodd" clip-rule="evenodd" fill="#9A9FBF" d="M1,11h2.5l-3.513,3.512l1.5,1.5L5,12.5V15h2V9H1V11z M11,11V9H9
			v6h2v-2.5l3.512,3.512l1.501-1.5L12.5,11H11z M15,11V9h-2v2H15z M5,3.5L1.487-0.012l-1.5,1.5L3.5,5H5v2h2V1H5V3.5z M1,5v2h2V5H1z
			 M15,5h-2.5l3.513-3.513l-1.501-1.5L11,3.5V1H9v6h6V5z"/>
	</g>
</g>
</svg>
