<?xml version="1.0" encoding="utf-8"?>
<!-- Generator: Adobe Illustrator 16.0.0, SVG Export Plug-In . SVG Version: 6.00 Build 0)  -->
<!DOCTYPE svg PUBLIC "-//W3C//DTD SVG 1.1//EN" "http://www.w3.org/Graphics/SVG/1.1/DTD/svg11.dtd">
<svg version="1.1" xmlns="http://www.w3.org/2000/svg" xmlns:xlink="http://www.w3.org/1999/xlink" x="0px" y="0px" width="18px"
	 height="22px" viewBox="0 0 18 22" enable-background="new 0 0 18 22" xml:space="preserve">
<g id="Capa_1">
	<path fill="#9A9FBF" d="M9,0.001C5.083,0.001,1.76,2.507,0.523,6h2.162C3.812,3.64,6.215,2.001,9,2.001c3.859,0,7,3.14,7,7
		c0,5.48-5.418,10.401-6.997,10.97C7.66,19.483,3.94,16.044,2.543,12h-2.09C2.012,17.475,7.275,22,9,22c2.033,0,9-6.153,9-12.999
		C18,4.03,13.971,0.001,9,0.001z"/>
</g>
<g id="Capa_2">
	<g>
		<g>
			<path fill-rule="evenodd" clip-rule="evenodd" fill="#9A9FBF" d="M9,5.03c-2.209,0-4,1.791-4,4c0,2.21,1.791,4,4,4
				c2.209,0,4-1.79,4-4C13,6.82,11.209,5.03,9,5.03z M9,11.031c-1.104,0-2-0.896-2-2s0.896-2,2-2s2,0.896,2,2
				S10.104,11.031,9,11.031z"/>
		</g>
	</g>
	<rect y="8" fill="#9A9FBF" width="2" height="2"/>
</g>
</svg>
