<?xml version="1.0" encoding="utf-8"?>
<!-- Generator: Adobe Illustrator 16.0.0, SVG Export Plug-In . SVG Version: 6.00 Build 0)  -->
<!DOCTYPE svg PUBLIC "-//W3C//DTD SVG 1.1//EN" "http://www.w3.org/Graphics/SVG/1.1/DTD/svg11.dtd">
<svg version="1.1" id="Capa_1" xmlns="http://www.w3.org/2000/svg" xmlns:xlink="http://www.w3.org/1999/xlink" x="0px" y="0px"
	 width="26px" height="21px" viewBox="0 0 26 21" enable-background="new 0 0 26 21" xml:space="preserve">
<g>
	<g>
		<path fill-rule="evenodd" clip-rule="evenodd" fill="#9A9FBF" d="M16,5.001H2C1.096,5.001,0,6.055,0,7v9.001c0,0.947,1.096,2,2,2
			V21l8-2.998V16l-6,2.002V16H2V7h14v11.001c0.904,0,2-1.053,2-2V7C18,6.055,16.904,5.001,16,5.001z M12,18.002h2v-2h-2V18.002z
			 M4,11.001h10V9.002H4V11.001z M4,14.002h6v-2H4V14.002z M10,2.002h16c0-0.947-1.096-2.001-2-2.001H10c-0.904,0-2,1.054-2,2.001
			v1.002h2V2.002z M24,11.001h-1V11h-2v2.002l-2-0.667v2.166L23,16v-2.998c0.511,0,1,0,1,0c0.904,0,2-1.054,2-2.001v-3h-2V11.001z
			 M24,6.001h2v-2h-2V6.001z"/>
	</g>
</g>
</svg>
