<?xml version="1.0" encoding="utf-8"?>
<!-- Generator: Adobe Illustrator 16.0.0, SVG Export Plug-In . SVG Version: 6.00 Build 0)  -->
<!DOCTYPE svg PUBLIC "-//W3C//DTD SVG 1.1//EN" "http://www.w3.org/Graphics/SVG/1.1/DTD/svg11.dtd">
<svg version="1.1" id="Capa_1" xmlns="http://www.w3.org/2000/svg" xmlns:xlink="http://www.w3.org/1999/xlink" x="0px" y="0px"
	 width="18px" height="22px" viewBox="0 0 18 22" enable-background="new 0 0 18 22" xml:space="preserve">
<g>
	<g>
		<path fill-rule="evenodd" clip-rule="evenodd" fill="#9A9FBF" d="M16,21.999h2V20h-2V21.999z M16,2h-2V1c0-0.552-0.447-1-1-1
			s-1,0.448-1,1v1H6V1c0-0.552-0.448-1-1-1C4.447,0,4,0.448,4,1v1H2C0.896,2,0,2.895,0,4v16c0,1.104,0.896,1.999,2,1.999h12V20H2V4
			h2v1c0,0.552,0.447,1,1,1c0.552,0,1-0.448,1-1V4h6v1c0,0.552,0.447,1,1,1s1-0.448,1-1V4h2v14h2V4C18,2.895,17.104,2,16,2z
			 M7.585,13.415l-1.414-1.414l-1.414,1.414l1.414,1.414l1.415,1.414L9,14.829l4.242-4.243l-1.414-1.414L7.585,13.415z"/>
	</g>
</g>
</svg>
