<?xml version="1.0" encoding="utf-8"?>
<!-- Generator: Adobe Illustrator 16.0.0, SVG Export Plug-In . SVG Version: 6.00 Build 0)  -->
<!DOCTYPE svg PUBLIC "-//W3C//DTD SVG 1.1//EN" "http://www.w3.org/Graphics/SVG/1.1/DTD/svg11.dtd">
<svg version="1.1" id="Capa_1" xmlns="http://www.w3.org/2000/svg" xmlns:xlink="http://www.w3.org/1999/xlink" x="0px" y="0px"
	 width="22px" height="20px" viewBox="0 0 22 20" enable-background="new 0 0 22 20" xml:space="preserve">
<g>
	<g>
		<path fill-rule="evenodd" clip-rule="evenodd" fill="#9A9FBF" d="M20,14H2V2h20c0-1.104-0.896-2-2-2H2c-1.104,0-2,0.895-2,2v12
			c0,1.104,0.896,2.001,2,2.001h6V18H5v2h12v-2h-3v-1.999h6c1.104,0,2-0.896,2-2.001V8.001h-2V14z M12,18h-2v-1.999h2V18z M20,6h2
			V4.001h-2V6z M8,9.001v-2H6v2H8z M12,9.001v-2h-2v2H12z M16,9.001v-2h-2v2H16z"/>
	</g>
</g>
</svg>
