<?xml version="1.0" encoding="utf-8"?>
<!-- Generator: Adobe Illustrator 16.0.0, SVG Export Plug-In . SVG Version: 6.00 Build 0)  -->
<!DOCTYPE svg PUBLIC "-//W3C//DTD SVG 1.1//EN" "http://www.w3.org/Graphics/SVG/1.1/DTD/svg11.dtd">
<svg version="1.1" xmlns="http://www.w3.org/2000/svg" xmlns:xlink="http://www.w3.org/1999/xlink" x="0px" y="0px" width="20px"
	 height="24px" viewBox="0 0 20 24" enable-background="new 0 0 20 24" xml:space="preserve">
<g id="Capa_1">
	<g>
		<polygon fill="#9A9FBF" points="4.012,24 7,24 7,22 5.747,22 5.047,17.094 14.766,17.047 15,17 3.016,17 		"/>
		<polygon fill="#9A9FBF" points="15,17 14.278,22 13,22 13,24 16.012,24 17.016,17 		"/>
	</g>
</g>
<g id="Capa_2">
	<path fill="#9A9FBF" d="M18.75,9.681C18.059,7.66,16.063,6.124,13,6.013v2.005c1.979,0.091,3.385,0.928,3.857,2.31
		c0.118,0.343,0.326,0.648,0.604,0.882C17.799,11.494,18,11.981,18,12.513c0,0.487-0.174,0.938-0.476,1.236
		c-0.283,0.279-0.477,0.637-0.555,1.026c-0.146,0.718-0.85,1.238-1.652,1.239c-0.281-0.035-0.966-0.502-1.19-0.655
		c-0.335-0.229-0.729-0.348-1.127-0.348c-0.13,0-0.26,0.013-0.389,0.038c-0.525,0.104-0.988,0.415-1.282,0.863
		c-0.454,0.689-0.95,1.101-1.329,1.101c-0.447,0-0.979-0.568-1.328-1.1c-0.294-0.448-0.756-0.76-1.282-0.864
		C7.26,15.024,7.13,15.012,7,15.012c-0.398,0-0.791,0.119-1.125,0.347c-0.226,0.153-0.912,0.621-1.168,0.655
		c-0.826,0-1.53-0.521-1.675-1.238c-0.079-0.39-0.272-0.747-0.555-1.026C2.173,13.45,2,13,2,12.513c0-0.532,0.201-1.019,0.538-1.302
		c0.278-0.234,0.487-0.539,0.604-0.883C3.583,9.041,5.051,8.164,7,8.019V6.013C4.057,6.182,1.937,7.672,1.25,9.681
		C0.496,10.316,0,11.344,0,12.513c0,1.071,0.421,2.018,1.07,2.659c0.327,1.618,1.828,2.842,3.636,2.842
		c0.805,0,1.686-0.588,2.294-1.002c0.653,0.995,1.67,2.002,3,2.002s2.346-1.007,3-2.002c0.607,0.414,1.488,1.002,2.294,1.002
		c1.808,0,3.309-1.224,3.636-2.842C19.579,14.53,20,13.584,20,12.513C20,11.344,19.504,10.316,18.75,9.681z"/>
</g>
<g id="Capa_3">
	<rect x="9" y="22" fill="#9A9FBF" width="2" height="2"/>
</g>
<g id="Capa_4">
	<g>
		<g>
			<path fill-rule="evenodd" clip-rule="evenodd" fill="#9A9FBF" d="M9,9.999h2v-6H9V9.999z M10,0C9.447,0,9,0.447,9,0.999v1
				c0,0.552,0.447,1,1,1s1-0.448,1-1v-1C11,0.447,10.553,0,10,0z"/>
		</g>
	</g>
</g>
</svg>
