<?xml version="1.0" encoding="utf-8"?>
<!-- Generator: Adobe Illustrator 16.0.0, SVG Export Plug-In . SVG Version: 6.00 Build 0)  -->
<!DOCTYPE svg PUBLIC "-//W3C//DTD SVG 1.1//EN" "http://www.w3.org/Graphics/SVG/1.1/DTD/svg11.dtd">
<svg version="1.1" id="Capa_1" xmlns="http://www.w3.org/2000/svg" xmlns:xlink="http://www.w3.org/1999/xlink" x="0px" y="0px"
	 width="20px" height="20px" viewBox="0 0 20 20" enable-background="new 0 0 20 20" xml:space="preserve">
<g>
	<g>
		<path fill-rule="evenodd" clip-rule="evenodd" fill="#9A9FBF" d="M16,0.001h-3v2h3c1.104,0,2,0.895,2,1.999v8h-2
			c-2.209,0-4,1.792-4,4.001v2H4c-1.104,0-2-0.896-2-2V4c0-1.104,0.896-1.999,2-1.999h3v-2H4c-2.209,0-4,1.79-4,3.999v12.001
			C0,18.21,1.791,20,4,20h11c2.021-2.03,3.125-2.978,5-4.999V4C20,1.792,18.209,0.001,16,0.001z M14,18.001v-2c0-1.104,0.896-2,2-2
			h2C16.875,15.012,15.511,16.469,14,18.001z M7,8H5v2h2V8z M9.986,13.997c1.654,0,2.995-0.849,2.995-1.896v-0.099H6.99v0.099
			C6.99,13.148,8.332,13.997,9.986,13.997z M11,0H9v2h2V0z M14.999,8H13v2h1.999V8z"/>
	</g>
</g>
</svg>
