<?xml version="1.0" encoding="utf-8"?>
<!-- Generator: Adobe Illustrator 16.0.0, SVG Export Plug-In . SVG Version: 6.00 Build 0)  -->
<!DOCTYPE svg PUBLIC "-//W3C//DTD SVG 1.1//EN" "http://www.w3.org/Graphics/SVG/1.1/DTD/svg11.dtd">
<svg version="1.1" xmlns="http://www.w3.org/2000/svg" xmlns:xlink="http://www.w3.org/1999/xlink" x="0px" y="0px" width="20px"
	 height="18px" viewBox="0 0 20 18" enable-background="new 0 0 20 18" xml:space="preserve">
<g id="Capa_1">
	<path fill="#9A9FBF" d="M5.508,10.001c0.276,0,0.5,0.224,0.5,0.5v5.001c0,0.275-0.224,0.498-0.5,0.498s-0.5-0.223-0.5-0.498v-5.001
		C5.008,10.225,5.232,10.001,5.508,10.001 M5.508,8.001c-1.379,0-2.5,1.122-2.5,2.5v5.001c0,1.377,1.121,2.498,2.5,2.498
		s2.5-1.121,2.5-2.498v-5.001C8.008,9.123,6.887,8.001,5.508,8.001L5.508,8.001z"/>
</g>
<g id="Capa_3">
	<path fill-rule="evenodd" clip-rule="evenodd" fill="#9A9FBF" d="M3.922,14.961c-1.059-0.042-1.906-0.907-1.906-1.977
		s0.848-1.935,1.906-1.977v-2C1.75,9.051,0,10.817,0,13s1.75,3.949,3.922,3.992V14.961z"/>
</g>
<g id="Capa_4">
	<path fill="#9A9FBF" d="M14.491,10.001c0.276,0,0.5,0.224,0.5,0.5v5.001c0,0.275-0.224,0.498-0.5,0.498s-0.5-0.223-0.5-0.498
		v-5.001C13.991,10.225,14.215,10.001,14.491,10.001 M14.491,8.001c-1.379,0-2.5,1.122-2.5,2.5v5.001c0,1.377,1.121,2.498,2.5,2.498
		c1.378,0,2.499-1.121,2.499-2.498v-5.001C16.99,9.123,15.869,8.001,14.491,8.001L14.491,8.001z"/>
	<path fill-rule="evenodd" clip-rule="evenodd" fill="#9A9FBF" d="M16.078,14.961c1.059-0.042,1.906-0.907,1.906-1.977
		s-0.848-1.935-1.906-1.977v-2C18.25,9.051,20,10.817,20,13s-1.75,3.949-3.922,3.992V14.961z"/>
</g>
<g id="Capa_5">
	<g>
		<path fill="#9A9FBF" d="M2.477,5.302C2.174,6.146,2,7.052,2,8v2.636h2V8c0-0.53,0.076-1.041,0.205-1.53L2.477,5.302z"/>
		<path fill="#9A9FBF" d="M10,0C9.051,0,8.145,0.174,7.3,0.477l1.164,1.729C8.956,2.076,9.468,2,10,2c3.309,0,6,2.691,6,6v2.636h2V8
			C18,3.582,14.418,0,10,0z"/>
	</g>
</g>
<g id="Capa_6">
	<rect x="4.021" y="1.979" fill="#9A9FBF" width="2" height="2"/>
</g>
</svg>
