<?xml version="1.0" encoding="utf-8"?>
<!-- Generator: Adobe Illustrator 16.0.0, SVG Export Plug-In . SVG Version: 6.00 Build 0)  -->
<!DOCTYPE svg PUBLIC "-//W3C//DTD SVG 1.1//EN" "http://www.w3.org/Graphics/SVG/1.1/DTD/svg11.dtd">
<svg version="1.1" id="Capa_1" xmlns="http://www.w3.org/2000/svg" xmlns:xlink="http://www.w3.org/1999/xlink" x="0px" y="0px"
	 width="20px" height="18px" viewBox="0 0 20 18" enable-background="new 0 0 20 18" xml:space="preserve">
<rect x="13" y="12" fill="#9A9FBF" width="2" height="2"/>
<path fill="#9A9FBF" d="M18.288,1.686c-1.133-1.131-2.398-1.691-3.941-1.691c-1.474,0-3.119,1.175-4.347,2.421
	C8.732,1.169,7.139,0,5.614,0C4.122,0,2.807,0.446,1.712,1.54c-2.282,2.274-2.282,5.962,0,8.239
	c0.651,0.651,6.976,7.682,6.976,7.682C9.048,17.82,9.521,18,9.993,18s0.944-0.18,1.304-0.539l1.048-1.132l-1.419-1.41l-0.931,1.005
	c-1.169-1.3-6.241-6.932-6.87-7.561C2.399,7.64,2,6.679,2,5.657c0-1.02,0.399-1.979,1.125-2.702C3.787,2.294,4.554,2,5.614,2
	C5.875,2,6.86,2.133,8.597,3.841l1.425,1.402l1.402-1.424c1.242-1.261,2.363-1.825,2.923-1.825c0.995,0,1.751,0.331,2.529,1.108
	C17.601,3.824,18,4.784,18,5.804c0,1.021-0.399,1.981-1.106,2.686c-0.049,0.048-0.055,0.053-1.069,1.148l-0.088,0.094l1.419,1.412
	l0.135-0.146c0,0,0.98-1.058,0.998-1.075C20.57,7.649,20.57,3.959,18.288,1.686z"/>
</svg>
