<?xml version="1.0" encoding="utf-8"?>
<!-- Generator: Adobe Illustrator 16.0.0, SVG Export Plug-In . SVG Version: 6.00 Build 0)  -->
<!DOCTYPE svg PUBLIC "-//W3C//DTD SVG 1.1//EN" "http://www.w3.org/Graphics/SVG/1.1/DTD/svg11.dtd">
<svg version="1.1" id="Capa_1" xmlns="http://www.w3.org/2000/svg" xmlns:xlink="http://www.w3.org/1999/xlink" x="0px" y="0px"
	 width="16px" height="14px" viewBox="0 0 16 14" enable-background="new 0 0 16 14" xml:space="preserve">
<path fill="#9A9FBF" d="M14.634,1.31c-0.904-0.879-1.915-1.315-3.146-1.315c-1.177,0-2.49,0.914-3.471,1.884
	c-1.011-0.97-2.284-1.879-3.501-1.879c-1.191,0-2.241,0.347-3.115,1.197c-1.822,1.769-1.822,4.638,0,6.409
	C1.921,8.111,6.97,13.58,6.97,13.58C7.257,13.86,7.635,14,8.011,14c0.377,0,0.753-0.14,1.042-0.42l0.755-0.794l-1.416-1.415
	l-0.375,0.396c-1.366-1.479-4.752-5.138-5.222-5.595c-0.491-0.477-0.761-1.106-0.76-1.772c0-0.665,0.27-1.293,0.761-1.77
	c0.448-0.436,0.979-0.63,1.72-0.63c0.34,0,1.099,0.346,2.117,1.322l1.406,1.348L9.423,3.3c0.969-0.958,1.766-1.306,2.064-1.306
	c0.688,0,1.212,0.224,1.753,0.75C13.73,3.22,14,3.848,14,4.514s-0.27,1.294-0.73,1.742c-0.057,0.053-0.059,0.054-0.891,0.929
	l-0.082,0.087l1.413,1.416l0.02-0.021l0.106-0.113c0,0,0.783-0.823,0.798-0.836C16.455,5.949,16.455,3.079,14.634,1.31z"/>
<g id="Capa_2">
	<rect x="10.014" y="9.003" fill="#9A9FBF" width="2" height="2"/>
</g>
</svg>
