<?xml version="1.0" encoding="utf-8"?>
<!-- Generator: Adobe Illustrator 16.0.0, SVG Export Plug-In . SVG Version: 6.00 Build 0)  -->
<!DOCTYPE svg PUBLIC "-//W3C//DTD SVG 1.1//EN" "http://www.w3.org/Graphics/SVG/1.1/DTD/svg11.dtd">
<svg version="1.1" id="Capa_1" xmlns="http://www.w3.org/2000/svg" xmlns:xlink="http://www.w3.org/1999/xlink" x="0px" y="0px"
	 width="20px" height="20px" viewBox="0 0 20 20" enable-background="new 0 0 20 20" xml:space="preserve">
<g>
	<g>
		<path fill-rule="evenodd" clip-rule="evenodd" fill="#9A9FBF" d="M18,0.001H4v2h14v3.381l-7.231,3.616l-4.737-5.31L2,6.917V4.001
			H0v14C0,19.105,0.896,20,2,20h16c1.104,0,2-0.895,2-1.999V2C20,0.896,19.104,0.001,18,0.001z M2,9.48l3.877-3.102L10.797,12H2
			V9.48z M18,18.001H2V14h16V18.001z M18,12h-4.553l-1.299-1.456L18,7.618V12z M2,0.001H0v2h2V0.001z M7,15H5v2h2V15z M11,15H9v2h2
			V15z M15,15h-2v2h2V15z"/>
	</g>
</g>
</svg>
