<?xml version="1.0" encoding="utf-8"?>
<!-- Generator: Adobe Illustrator 16.0.0, SVG Export Plug-In . SVG Version: 6.00 Build 0)  -->
<!DOCTYPE svg PUBLIC "-//W3C//DTD SVG 1.1//EN" "http://www.w3.org/Graphics/SVG/1.1/DTD/svg11.dtd">
<svg version="1.1" id="Capa_1" xmlns="http://www.w3.org/2000/svg" xmlns:xlink="http://www.w3.org/1999/xlink" x="0px" y="0px"
	 width="24px" height="20px" viewBox="0 0 24 20" enable-background="new 0 0 24 20" xml:space="preserve">
<path fill="#9A9FBF" d="M5.508,12.001c0.276,0,0.5,0.224,0.5,0.5v5.001c0,0.275-0.224,0.498-0.5,0.498s-0.5-0.223-0.5-0.498v-5.001
	C5.008,12.225,5.232,12.001,5.508,12.001 M5.508,10.001c-1.379,0-2.5,1.122-2.5,2.5v5.001c0,1.377,1.121,2.498,2.5,2.498
	s2.5-1.121,2.5-2.498v-5.001C8.008,11.123,6.887,10.001,5.508,10.001L5.508,10.001z"/>
<path fill-rule="evenodd" clip-rule="evenodd" fill="#9A9FBF" d="M3.922,16.961c-1.059-0.042-1.906-0.907-1.906-1.977
	s0.848-1.935,1.906-1.977v-2C1.75,11.051,0,12.817,0,15s1.75,3.949,3.922,3.992V16.961z"/>
<path fill="#9A9FBF" d="M14.491,12.001c0.276,0,0.5,0.224,0.5,0.5v5.001c0,0.275-0.224,0.498-0.5,0.498s-0.5-0.223-0.5-0.498v-5.001
	C13.991,12.225,14.215,12.001,14.491,12.001 M14.491,10.001c-1.379,0-2.5,1.122-2.5,2.5v5.001c0,1.377,1.121,2.498,2.5,2.498
	c1.378,0,2.499-1.121,2.499-2.498v-5.001C16.99,11.123,15.869,10.001,14.491,10.001L14.491,10.001z"/>
<path fill-rule="evenodd" clip-rule="evenodd" fill="#9A9FBF" d="M16.078,16.961c1.059-0.042,1.906-0.907,1.906-1.977
	s-0.848-1.935-1.906-1.977v-2C18.25,11.051,20,12.817,20,15s-1.75,3.949-3.922,3.992V16.961z"/>
<g>
	<path fill="#9A9FBF" d="M2.477,7.302C2.174,8.146,2,9.052,2,10v2.636h2V10c0-0.53,0.076-1.041,0.205-1.53L2.477,7.302z"/>
	<path fill="#9A9FBF" d="M10,2C9.051,2,8.145,2.174,7.3,2.477l1.164,1.729C8.956,4.076,9.468,4,10,4c3.309,0,6,2.691,6,6v2.636h2V10
		C18,5.582,14.418,2,10,2z"/>
</g>
<rect x="4.021" y="3.979" fill="#9A9FBF" width="2" height="2"/>
<rect x="18" fill="#9A9FBF" width="6" height="2"/>
</svg>
