<?xml version="1.0" encoding="utf-8"?>
<!-- Generator: Adobe Illustrator 16.0.0, SVG Export Plug-In . SVG Version: 6.00 Build 0)  -->
<!DOCTYPE svg PUBLIC "-//W3C//DTD SVG 1.1//EN" "http://www.w3.org/Graphics/SVG/1.1/DTD/svg11.dtd">
<svg version="1.1" xmlns="http://www.w3.org/2000/svg" xmlns:xlink="http://www.w3.org/1999/xlink" x="0px" y="0px" width="24px"
	 height="22px" viewBox="0 0 24 22" enable-background="new 0 0 24 22" xml:space="preserve">
<g id="Capa_2">
	<path fill="#9A9FBF" d="M5.508,14.001c0.276,0,0.5,0.224,0.5,0.5v5.001c0,0.275-0.224,0.498-0.5,0.498s-0.5-0.223-0.5-0.498v-5.001
		C5.008,14.225,5.232,14.001,5.508,14.001 M5.508,12.001c-1.379,0-2.5,1.122-2.5,2.5v5.001c0,1.377,1.121,2.498,2.5,2.498
		s2.5-1.121,2.5-2.498v-5.001C8.008,13.123,6.887,12.001,5.508,12.001L5.508,12.001z"/>
	<path fill-rule="evenodd" clip-rule="evenodd" fill="#9A9FBF" d="M3.922,18.961c-1.059-0.042-1.906-0.907-1.906-1.977
		s0.848-1.935,1.906-1.977v-2C1.75,13.051,0,14.817,0,17s1.75,3.949,3.922,3.992V18.961z"/>
	<path fill="#9A9FBF" d="M14.491,14.001c0.276,0,0.5,0.224,0.5,0.5v5.001c0,0.275-0.224,0.498-0.5,0.498s-0.5-0.223-0.5-0.498
		v-5.001C13.991,14.225,14.215,14.001,14.491,14.001 M14.491,12.001c-1.379,0-2.5,1.122-2.5,2.5v5.001
		c0,1.377,1.121,2.498,2.5,2.498c1.378,0,2.499-1.121,2.499-2.498v-5.001C16.99,13.123,15.869,12.001,14.491,12.001L14.491,12.001z"
		/>
	<path fill-rule="evenodd" clip-rule="evenodd" fill="#9A9FBF" d="M16.078,18.961c1.059-0.042,1.906-0.907,1.906-1.977
		s-0.848-1.935-1.906-1.977v-2C18.25,13.051,20,14.817,20,17s-1.75,3.949-3.922,3.992V18.961z"/>
	<g>
		<path fill="#9A9FBF" d="M2.477,9.302C2.174,10.146,2,11.052,2,12v2.636h2V12c0-0.53,0.076-1.041,0.205-1.53L2.477,9.302z"/>
		<path fill="#9A9FBF" d="M10,4C9.051,4,8.145,4.174,7.3,4.477l1.164,1.729C8.956,6.076,9.468,6,10,6c3.309,0,6,2.691,6,6v2.636h2
			V12C18,7.582,14.418,4,10,4z"/>
	</g>
	<rect x="4.021" y="5.979" fill="#9A9FBF" width="2" height="2"/>
</g>
<g id="Capa_1">
	<rect x="20" fill="#9A9FBF" width="2" height="6"/>
	<rect x="18" y="2" fill="#9A9FBF" width="6" height="2"/>
</g>
</svg>
