<?xml version="1.0" encoding="utf-8"?>
<!-- Generator: Adobe Illustrator 16.0.0, SVG Export Plug-In . SVG Version: 6.00 Build 0)  -->
<!DOCTYPE svg PUBLIC "-//W3C//DTD SVG 1.1//EN" "http://www.w3.org/Graphics/SVG/1.1/DTD/svg11.dtd">
<svg version="1.1" id="Capa_1" xmlns="http://www.w3.org/2000/svg" xmlns:xlink="http://www.w3.org/1999/xlink" x="0px" y="0px"
	 width="18px" height="18px" viewBox="0 0 18 18" enable-background="new 0 0 18 18" xml:space="preserve">
<g>
	<g>
		<path fill-rule="evenodd" clip-rule="evenodd" fill="#9A9FBF" d="M5,12c-1.305,0-2.403,0.837-2.816,2H0v2h2.184
			C2.597,17.162,3.695,18,5,18s2.403-0.838,2.816-2H14v-2H7.816C7.403,12.837,6.305,12,5,12z M6,16H4v-2h2V16z M13,6
			c-1.305,0-2.403,0.838-2.816,2H0v2h10.184c0.413,1.163,1.512,2,2.816,2s2.403-0.838,2.816-2H18V8h-2.184
			C15.403,6.837,14.305,6,13,6z M14,10h-2V8h2V10z M7.816,2C7.403,0.837,6.305,0,5,0S2.597,0.837,2.184,2H0v2h2.184
			C2.597,5.162,3.695,6,5,6s2.403-0.837,2.816-2H18V2H7.816z M6,4H4V2h2V4z M16,16h2v-2h-2V16z"/>
	</g>
</g>
</svg>
