<?xml version="1.0" encoding="utf-8"?>
<!-- Generator: Adobe Illustrator 16.0.0, SVG Export Plug-In . SVG Version: 6.00 Build 0)  -->
<!DOCTYPE svg PUBLIC "-//W3C//DTD SVG 1.1//EN" "http://www.w3.org/Graphics/SVG/1.1/DTD/svg11.dtd">
<svg version="1.1" id="Capa_1" xmlns="http://www.w3.org/2000/svg" xmlns:xlink="http://www.w3.org/1999/xlink" x="0px" y="0px"
	 width="24px" height="21px" viewBox="0 0 24 21" enable-background="new 0 0 24 21" xml:space="preserve">
<path fill="#9A9FBF" d="M7.672,11.017v1.999h3.993v2H7.672v2.016l-4-3.008L7.672,11.017 M9.672,7.011L6.47,9.418l-4,3.008
	l-2.127,1.598l2.127,1.6l4,3.006l3.202,2.408v-4.006v-0.016h1.993h2v-2v-2v-2.001h-2H9.672V7.011L9.672,7.011z"/>
<rect x="10.672" y="4" fill="#9A9FBF" width="2" height="2"/>
<polygon fill="#9A9FBF" points="21.873,5.414 17.873,2.407 14.672,0 14.672,4.003 14.672,4.003 14.672,6.004 16.672,6.004 
	16.672,4.005 20.672,7.012 16.672,10.019 16.672,8.003 10.678,8.003 10.678,8 10.678,8 10.678,8.003 10.678,10.003 10.678,10.003 
	14.672,10.003 14.672,10.019 14.672,14.025 17.873,11.617 21.873,8.611 24,7.012 "/>
</svg>
