<?xml version="1.0" encoding="utf-8"?>
<!-- Generator: Adobe Illustrator 16.0.0, SVG Export Plug-In . SVG Version: 6.00 Build 0)  -->
<!DOCTYPE svg PUBLIC "-//W3C//DTD SVG 1.1//EN" "http://www.w3.org/Graphics/SVG/1.1/DTD/svg11.dtd">
<svg version="1.1" id="Capa_1" xmlns="http://www.w3.org/2000/svg" xmlns:xlink="http://www.w3.org/1999/xlink" x="0px" y="0px"
	 width="26px" height="21px" viewBox="0 0 26 21" enable-background="new 0 0 26 21" xml:space="preserve">
<path fill="#9A9FBF" d="M7.329,11.017v1.999h5.993v2H7.329v2.016l-4-3.008L7.329,11.017 M9.329,7.011L6.127,9.418l-4,3.008L0,14.023
	l2.127,1.6l4,3.006l3.202,2.408v-4.006v-0.016h3.993h2v-2v-2v-2.001h-2H9.329V7.011L9.329,7.011z"/>
<rect x="10.329" y="4" fill="#9A9FBF" width="2" height="2"/>
<polygon fill="#9A9FBF" points="23.529,5.414 19.529,2.407 16.328,0 16.328,4.003 14.328,4.003 14.328,6.004 18.328,6.004 
	18.328,4.005 22.328,7.012 18.328,10.019 18.328,8.003 12.334,8.003 12.334,8 10.335,8 10.335,8.003 10.335,10.003 12.334,10.003 
	16.328,10.003 16.328,10.019 16.328,14.025 19.529,11.617 23.529,8.611 25.656,7.012 "/>
</svg>
