<?xml version="1.0" encoding="utf-8"?>
<!-- Generator: Adobe Illustrator 16.0.0, SVG Export Plug-In . SVG Version: 6.00 Build 0)  -->
<!DOCTYPE svg PUBLIC "-//W3C//DTD SVG 1.1//EN" "http://www.w3.org/Graphics/SVG/1.1/DTD/svg11.dtd">
<svg version="1.1" id="Capa_1" xmlns="http://www.w3.org/2000/svg" xmlns:xlink="http://www.w3.org/1999/xlink" x="0px" y="0px"
	 width="22px" height="20px" viewBox="0 0 22 20" enable-background="new 0 0 22 20" xml:space="preserve">
<g>
	<g>
		<path fill-rule="evenodd" clip-rule="evenodd" fill="#9A9FBF" d="M20,0H2C0.895,0,0,0.896,0,2v10c0,1.104,0.896,2,2,2
			c0,0,0.375,0,1,0v-2H2V2h18v12c1.104,0,2-0.896,2-2V2C22,0.896,21.104,0,20,0z M13,14h1v-2h-1V14z M16,14h2v-2h-2V14z M17,4H4v2
			h13V4z M4,10h8V8H4V10z"/>
	</g>
</g>
<polygon fill-rule="evenodd" clip-rule="evenodd" fill="#9A9FBF" points="11,12 5,16.141 5,12 3,12 3,14 3,20 11,14.002 11,14 
	13,14 13,12 "/>
</svg>
