<?xml version="1.0" encoding="utf-8"?>
<!-- Generator: Adobe Illustrator 16.0.0, SVG Export Plug-In . SVG Version: 6.00 Build 0)  -->
<!DOCTYPE svg PUBLIC "-//W3C//DTD SVG 1.1//EN" "http://www.w3.org/Graphics/SVG/1.1/DTD/svg11.dtd">
<svg version="1.1" id="Capa_1" xmlns="http://www.w3.org/2000/svg" xmlns:xlink="http://www.w3.org/1999/xlink" x="0px" y="0px"
	 width="12px" height="13px" viewBox="0 0 12 13" enable-background="new 0 0 12 13" xml:space="preserve">
<path fill-rule="evenodd" clip-rule="evenodd" fill="#9A9FBF" d="M6,13c-3.313,0-6-2.687-6-6c0-1.697,0.716-3.213,1.853-4.299
	L0.466,1.315l4.948-0.729L4.685,5.534l-1.36-1.361c-0.193,0.19-0.402,0.368-0.557,0.595l0,0C2.315,5.412,2,6.152,2,7
	c0,2.209,1.791,4,4,4s4-1.791,4-4c0-0.975-0.362-1.855-0.941-2.549l1.529-1.274C11.457,4.217,12,5.539,12,7C12,10.313,9.313,13,6,13
	z"/>
</svg>
