<?xml version="1.0" encoding="utf-8"?>
<!-- Generator: Adobe Illustrator 16.0.0, SVG Export Plug-In . SVG Version: 6.00 Build 0)  -->
<!DOCTYPE svg PUBLIC "-//W3C//DTD SVG 1.1//EN" "http://www.w3.org/Graphics/SVG/1.1/DTD/svg11.dtd">
<svg version="1.1" id="Capa_1" xmlns="http://www.w3.org/2000/svg" xmlns:xlink="http://www.w3.org/1999/xlink" x="0px" y="0px"
	 width="22px" height="21px" viewBox="0 0 22 21" enable-background="new 0 0 22 21" xml:space="preserve">
<g>
	<g>
		<path fill-rule="evenodd" clip-rule="evenodd" fill="#9A9FBF" d="M13.656,2.343c-3.124-3.124-8.189-3.124-11.313,0
			s-3.124,8.19,0,11.313c3.124,3.124,8.19,3.124,11.313,0C16.78,10.533,16.78,5.467,13.656,2.343z M12.242,12.242
			c-2.343,2.343-6.143,2.343-8.485,0c-2.343-2.343-2.343-6.142,0-8.485c2.343-2.343,6.143-2.343,8.485,0
			C14.585,6.099,14.585,9.899,12.242,12.242z"/>
	</g>
</g>
<rect x="16.178" y="13.376" transform="matrix(0.7069 -0.7074 0.7074 0.7069 -5.134 16.3655)" fill="#9A9FBF" width="2" height="2.001"/>
<path fill="#9A9FBF" d="M18.598,18.614c-0.391,0.392-1.023,0.392-1.414,0l-4.242-4.242l-0.547-0.559l0.397-0.397l2.425-2.425
	l-0.861-0.862l-1.414,1.414l-1.415,1.415l-1.414,1.414l1.414,1.414l4.243,4.242c1.17,1.17,3.073,1.17,4.242,0
	c1.17-1.169,1.17-3.072,0-4.242L18.598,17.2C18.989,17.591,18.988,18.225,18.598,18.614z"/>
</svg>
