<?xml version="1.0" encoding="utf-8"?>
<!-- Generator: Adobe Illustrator 16.0.0, SVG Export Plug-In . SVG Version: 6.00 Build 0)  -->
<!DOCTYPE svg PUBLIC "-//W3C//DTD SVG 1.1//EN" "http://www.w3.org/Graphics/SVG/1.1/DTD/svg11.dtd">
<svg version="1.1" xmlns="http://www.w3.org/2000/svg" xmlns:xlink="http://www.w3.org/1999/xlink" x="0px" y="0px" width="50px"
	 height="50px" viewBox="0 0 50 50" enable-background="new 0 0 50 50" xml:space="preserve">
<g id="Capa_1">
	<path fill-rule="evenodd" clip-rule="evenodd" fill="#9A9FBF" d="M25,0c13.807,0,25,11.193,25,25c0,13.807-11.193,25-25,25
		c-13.807,0-25-11.193-25-25C0,11.193,11.193,0,25,0z"/>
</g>
<g id="Capa_2">
	<path fill-rule="evenodd" clip-rule="evenodd" fill="#FFFFFF" d="M37.012,15.011h-2h-2v-2h2h2h2v2H37.012z"/>
</g>
<g id="Capa_3">
	<rect x="30.002" y="32.031" fill="#FFFFFF" width="2" height="2"/>
	<path fill="#FFFFFF" d="M34.908,22.48c-0.172-0.516-0.613-0.894-1.146-0.976l-5.193-0.8l-2.258-4.852
		c-0.236-0.51-0.746-0.835-1.306-0.835c-0.558,0-1.067,0.326-1.304,0.835l-2.258,4.852l-5.193,0.8
		c-0.534,0.082-0.977,0.46-1.149,0.976c-0.172,0.517-0.042,1.087,0.335,1.475l3.805,3.937l-0.883,5.457
		c-0.089,0.549,0.141,1.101,0.592,1.422c0.248,0.176,0.539,0.266,0.83,0.266c0.24,0,0.479-0.061,0.697-0.182l4.527-2.523l2.98,1.66
		v-2.289l-2.006-1.118l-0.974-0.543l-0.974,0.543l-3.516,1.96l0.701-4.334l0.16-0.988L20.679,26.5l-3.076-3.181l4.144-0.638
		l1.058-0.163l0.452-0.97l1.749-3.759l1.75,3.759l0.451,0.97l1.057,0.163l4.146,0.639l-3.076,3.181l-0.697,0.721l0.16,0.989
		l0.297,1.843h2.025l-0.35-2.162l3.807-3.936C34.951,23.567,35.082,22.997,34.908,22.48z"/>
</g>
</svg>
