<?xml version="1.0" encoding="utf-8"?>
<!-- Generator: Adobe Illustrator 16.0.0, SVG Export Plug-In . SVG Version: 6.00 Build 0)  -->
<!DOCTYPE svg PUBLIC "-//W3C//DTD SVG 1.1//EN" "http://www.w3.org/Graphics/SVG/1.1/DTD/svg11.dtd">
<svg version="1.1" id="Capa_1" xmlns="http://www.w3.org/2000/svg" xmlns:xlink="http://www.w3.org/1999/xlink" x="0px" y="0px"
	 width="24px" height="18px" viewBox="0 0 24 18" enable-background="new 0 0 24 18" xml:space="preserve">
<g>
	<g>
		<path fill-rule="evenodd" clip-rule="evenodd" fill="#9A9FBF" d="M12,6C9.791,6,8,7.79,8,10c0,2.209,1.791,4,4,4s4-1.791,4-4
			C16,7.79,14.209,6,12,6z M12,12.002c-1.104,0-2-0.896-2-2s0.896-2,2-2s2,0.896,2,2S13.104,12.002,12,12.002z M20,2h-2
			c0-1.105-0.896-2-2-2H8C6.896,0,6,0.895,6,2H4C1.791,2,0,3.791,0,6v8c0,2.21,1.791,4,4,4c0,0,3.895,0,8.938,0H13v-2H4
			c-1.104,0-2-0.896-2-2V6c0-1.104,0.896-2,2-2h4V2h8v2h4c1.104,0,2,0.896,2,2v8c0,1.104-0.896,2-2,2h-1v2c0.631,0,1,0,1,0
			c2.209,0,4-1.79,4-4V6C24,3.791,22.209,2,20,2z M15,18h2v-2h-2V18z"/>
	</g>
</g>
</svg>
