<?xml version="1.0" encoding="utf-8"?>
<!-- Generator: Adobe Illustrator 16.0.0, SVG Export Plug-In . SVG Version: 6.00 Build 0)  -->
<!DOCTYPE svg PUBLIC "-//W3C//DTD SVG 1.1//EN" "http://www.w3.org/Graphics/SVG/1.1/DTD/svg11.dtd">
<svg version="1.1" id="Capa_1" xmlns="http://www.w3.org/2000/svg" xmlns:xlink="http://www.w3.org/1999/xlink" x="0px" y="0px"
	 width="20px" height="22px" viewBox="0 0 20 22" enable-background="new 0 0 20 22" xml:space="preserve">
<g>
	<g>
		<path fill-rule="evenodd" clip-rule="evenodd" fill="#9A9FBF" d="M0,11.992c0,4.479,2.947,8.268,7.009,9.539v-2.118
			c-2.931-1.188-5-4.057-5-7.413c0-3.357,2.069-6.226,5-7.414V2.455C2.947,3.726,0,7.515,0,11.992z M13.009,2.46v2.126
			c2.931,1.188,5,4.057,5,7.413s-2.069,6.226-5,7.413v2.111C17.061,20.248,20,16.465,20,11.992C20,7.521,17.062,3.737,13.009,2.46z
			 M9.009,10h2V0h-2V10z M9.009,22h2v-2h-2V22z"/>
	</g>
</g>
</svg>
