<?xml version="1.0" encoding="utf-8"?>
<!-- Generator: Adobe Illustrator 16.0.0, SVG Export Plug-In . SVG Version: 6.00 Build 0)  -->
<!DOCTYPE svg PUBLIC "-//W3C//DTD SVG 1.1//EN" "http://www.w3.org/Graphics/SVG/1.1/DTD/svg11.dtd">
<svg version="1.1" id="Capa_1" xmlns="http://www.w3.org/2000/svg" xmlns:xlink="http://www.w3.org/1999/xlink" x="0px" y="0px"
	 width="24px" height="18px" viewBox="0 0 24 18" enable-background="new 0 0 24 18" xml:space="preserve">
<g>
	<g>
		<path fill-rule="evenodd" clip-rule="evenodd" fill="#9A9FBF" d="M15,2.001c2.791,0,5.193,1.637,6.317,4h2.159
			C22.24,2.507,18.917,0,15,0c-3.917,0-7.241,2.507-8.477,6h2.16C9.807,3.638,12.209,2.001,15,2.001z M15,16.001
			c-2.791,0-5.193-1.637-6.317-4H6.523C7.76,15.494,11.083,18,15,18c3.916,0,7.24-2.506,8.477-5.999h-2.159
			C20.193,14.364,17.791,16.001,15,16.001z M13,10V8H3.828l1.829-1.828L4.243,4.758L0,9l4.243,4.243l1.414-1.414L3.828,10H13z
			 M22,8.001v2h2v-2H22z"/>
	</g>
</g>
</svg>
