<?xml version="1.0" encoding="utf-8"?>
<!-- Generator: Adobe Illustrator 16.0.0, SVG Export Plug-In . SVG Version: 6.00 Build 0)  -->
<!DOCTYPE svg PUBLIC "-//W3C//DTD SVG 1.1//EN" "http://www.w3.org/Graphics/SVG/1.1/DTD/svg11.dtd">
<svg version="1.1" id="Capa_1" xmlns="http://www.w3.org/2000/svg" xmlns:xlink="http://www.w3.org/1999/xlink" x="0px" y="0px"
	 width="22px" height="18px" viewBox="0 0 22 18" enable-background="new 0 0 22 18" xml:space="preserve">
<g>
	<g>
		<path fill-rule="evenodd" clip-rule="evenodd" fill="#9A9FBF" d="M0,1.999V16c0,1.104,0.896,2,2,2h8v-2H2V1.999h8v-2H2
			C0.896-0.001,0,0.895,0,1.999z M6,14V4H4v10H6z M8,14h2V4H8V14z M12,1.999h2v-2h-2V1.999z M16,1.999h2v-2h-2V1.999z M20-0.001v2h2
			v-2H20z M20,5.999h2V4h-2V5.999z M20,9.999h2v-2h-2V9.999z M20,14h2v-2h-2V14z M20,18h2v-2h-2V18z M16,18h2v-2h-2V18z M12,18h2v-2
			h-2V18z"/>
	</g>
</g>
</svg>
