<?xml version="1.0" encoding="utf-8"?>
<!-- Generator: Adobe Illustrator 16.0.0, SVG Export Plug-In . SVG Version: 6.00 Build 0)  -->
<!DOCTYPE svg PUBLIC "-//W3C//DTD SVG 1.1//EN" "http://www.w3.org/Graphics/SVG/1.1/DTD/svg11.dtd">
<svg version="1.1" id="Capa_1" xmlns="http://www.w3.org/2000/svg" xmlns:xlink="http://www.w3.org/1999/xlink" x="0px" y="0px"
	 width="18px" height="20px" viewBox="0 0 18 20" enable-background="new 0 0 18 20" xml:space="preserve">
<path fill-rule="evenodd" clip-rule="evenodd" fill="#9A9FBF" d="M4,16.001V14h6v2.001H4z M4,10h10v2H4V10z M14,16.001V20H2H0
	v-3.001V14V2c0-1.104,0.896-2,2-2h14c1.104,0,2,0.896,2,2v6h-2H2v6v4.001h10V14h4h2v2.001H14z M16,6V2H2v4H16z M5,5H3V3h2V5z M8,5H6
	V3h2V5z M11,5H9V3h2V5z M16,10h2v2h-2V10z"/>
</svg>
