<?xml version="1.0" encoding="utf-8"?>
<!-- Generator: Adobe Illustrator 16.0.0, SVG Export Plug-In . SVG Version: 6.00 Build 0)  -->
<!DOCTYPE svg PUBLIC "-//W3C//DTD SVG 1.1//EN" "http://www.w3.org/Graphics/SVG/1.1/DTD/svg11.dtd">
<svg version="1.1" id="Capa_1" xmlns="http://www.w3.org/2000/svg" xmlns:xlink="http://www.w3.org/1999/xlink" x="0px" y="0px"
	 width="23px" height="20px" viewBox="0 0 23 20" enable-background="new 0 0 23 20" xml:space="preserve">
<g>
	<g>
		<path fill-rule="evenodd" clip-rule="evenodd" fill="#9A9FBF" d="M10,2.008c2.025,0,3.87,0.759,5.279,2h2.716
			C16.172,1.578,13.277,0,10.007,0C5.529,0,1.74,2.946,0.47,7.008h2.117C3.774,4.077,6.644,2.008,10,2.008z M10,18.008
			c-3.356,0-6.226-2.069-7.413-5H0.476C1.751,17.061,5.535,20,10.007,20c3.264,0,6.151-1.572,7.976-3.992h-2.703
			C13.87,17.249,12.025,18.008,10,18.008z M20,9.008v-3h-2v3h-3v2h3v3h2v-3h3v-2H20z M2,9.008H0v2h2V9.008z"/>
	</g>
</g>
</svg>
