<?xml version="1.0" encoding="utf-8"?>
<!-- Generator: Adobe Illustrator 16.0.0, SVG Export Plug-In . SVG Version: 6.00 Build 0)  -->
<!DOCTYPE svg PUBLIC "-//W3C//DTD SVG 1.1//EN" "http://www.w3.org/Graphics/SVG/1.1/DTD/svg11.dtd">
<svg version="1.1" id="Capa_1" xmlns="http://www.w3.org/2000/svg" xmlns:xlink="http://www.w3.org/1999/xlink" x="0px" y="0px"
	 width="14px" height="18px" viewBox="0 0 14 18" enable-background="new 0 0 14 18" xml:space="preserve">
<g>
	<g>
		<path fill-rule="evenodd" clip-rule="evenodd" fill="#9A9FBF" d="M12,2h-1V1c0-0.553-0.448-1-1-1C9.447,0,9,0.447,9,1v1H5V1
			c0-0.553-0.448-1-1-1C3.447,0,3,0.447,3,1v1H2C0.896,2,0,2.796,0,3.777v12.444C0,17.204,0.896,18,2,18h8v-2H2V4h1v1
			c0,0.552,0.447,1,1,1c0.552,0,1-0.448,1-1V4h4v1c0,0.552,0.447,1,1,1c0.552,0,1-0.448,1-1V4h1v10h2V3.777C14,2.796,13.104,2,12,2z
			 M12,18h2v-2h-2V18z M4,9.999h6v-2H4V9.999z M4,13.999h2v-2H4V13.999z M8,13.999h2v-2H8V13.999z"/>
	</g>
</g>
</svg>
