<?xml version="1.0" encoding="utf-8"?>
<!-- Generator: Adobe Illustrator 16.0.0, SVG Export Plug-In . SVG Version: 6.00 Build 0)  -->
<!DOCTYPE svg PUBLIC "-//W3C//DTD SVG 1.1//EN" "http://www.w3.org/Graphics/SVG/1.1/DTD/svg11.dtd">
<svg version="1.1" id="Capa_2" xmlns="http://www.w3.org/2000/svg" xmlns:xlink="http://www.w3.org/1999/xlink" x="0px" y="0px"
	 width="20px" height="20px" viewBox="0 0 20 20" enable-background="new 0 0 20 20" xml:space="preserve">
<rect x="15.018" y="16.995" fill="#9A9FBF" width="2" height="2"/>
<path fill="#9A9FBF" d="M19.925,7.444c-0.172-0.516-0.615-0.894-1.148-0.976l-5.193-0.8l-2.257-4.852
	c-0.237-0.51-0.746-0.835-1.306-0.835c-0.558,0-1.067,0.326-1.304,0.835L6.459,5.668l-5.193,0.8C0.732,6.55,0.289,6.928,0.117,7.444
	c-0.172,0.517-0.042,1.087,0.335,1.475l3.805,3.936l-0.883,5.457c-0.089,0.55,0.141,1.101,0.592,1.423
	C4.214,19.91,4.505,20,4.796,20c0.24,0,0.479-0.061,0.697-0.182l4.527-2.523L13,18.955v-2.289l-2.006-1.118l-0.974-0.543
	l-0.974,0.543l-3.516,1.96l0.701-4.334l0.16-0.989l-0.696-0.721L2.619,8.283l4.144-0.638l1.058-0.163l0.452-0.97l1.749-3.759
	l1.749,3.759l0.451,0.97l1.058,0.163l4.146,0.639l-3.077,3.181l-0.697,0.721l0.16,0.989l0.298,1.842h2.026l-0.35-2.161l3.807-3.936
	C19.968,8.531,20.097,7.961,19.925,7.444z"/>
</svg>
