<?xml version="1.0" encoding="utf-8"?>
<!-- Generator: Adobe Illustrator 16.0.0, SVG Export Plug-In . SVG Version: 6.00 Build 0)  -->
<!DOCTYPE svg PUBLIC "-//W3C//DTD SVG 1.1//EN" "http://www.w3.org/Graphics/SVG/1.1/DTD/svg11.dtd">
<svg version="1.1" xmlns="http://www.w3.org/2000/svg" xmlns:xlink="http://www.w3.org/1999/xlink" x="0px" y="0px" width="26px"
	 height="22px" viewBox="0 0 26 22" enable-background="new 0 0 26 22" xml:space="preserve">
<g id="Capa_1">
	<rect x="13" y="20" fill="#9A9FBF" width="2" height="2"/>
	<path fill="#9A9FBF" d="M19.412,14.708c0-2.369-2.088-4.292-4.694-4.368c-1.244-1.423-3.169-2.341-5.335-2.341
		c-3.611,0-6.556,2.542-6.773,5.749C1.059,14.478,0,15.938,0,17.624C0,20.041,2.172,22,4.853,22h2.084H11v-2H6.938H4.853
		C3.28,20,2,18.935,2,17.624c0-0.851,0.56-1.643,1.46-2.066l1.064-0.501l0.08-1.174c0.147-2.178,2.246-3.884,4.778-3.884
		c1.513,0,2.909,0.604,3.83,1.657l0.575,0.657l0.873,0.025c1.518,0.045,2.753,1.107,2.753,2.369v1.386l1.297,0.486
		C19.493,16.875,20,17.514,20,18.207C20,18.65,20,20,17.794,20H17v2h0.794C20.117,22,22,20.77,22,18.207
		C22,16.63,20.932,15.278,19.412,14.708z"/>
</g>
<g id="Capa_2">
	<g>
		<g>
			<path fill-rule="evenodd" clip-rule="evenodd" fill="#9A9FBF" d="M15,5c-2.761,0-5.062,1.875-5.761,4.413L11,10.001l0.123,0.06
				C11.546,8.307,13.116,7,15,7c2.209,0,4,1.792,4,4c0,1.159-0.501,2.195-1.289,2.927c0.359,0.469,0.803,1.051,1.207,1.584
				C20.184,14.409,21,12.808,21,11C21,7.687,18.313,5,15,5z M9.414,4L8,2.585c-0.391-0.39-1.024-0.39-1.414,0
				C6.195,2.977,6.195,3.609,6.586,4L8,5.414c0.391,0.392,1.023,0.392,1.414,0C9.805,5.024,9.805,4.392,9.414,4z M15,4
				c0.553,0,1-0.448,1-1v-2C16,0.449,15.553,0,15,0s-1,0.449-1,1.001v2C14,3.552,14.447,4,15,4z M25,9h-2c-0.553,0-1,0.448-1,1.001
				C22,10.554,22.447,11,23,11h2c0.553,0,1-0.446,1-0.999C26,9.448,25.553,9,25,9z"/>
		</g>
	</g>
</g>
<g id="Capa_3">
	<path fill-rule="evenodd" clip-rule="evenodd" fill="#9A9FBF" d="M22.878,2.216c0.392,0.391,0.39,1.022-0.001,1.414l-1.414,1.414
		c-0.391,0.391-1.022,0.392-1.414,0.001c-0.391-0.392-0.391-1.024,0-1.416l1.414-1.414C21.854,1.824,22.486,1.825,22.878,2.216z"/>
</g>
</svg>
