<?xml version="1.0" encoding="utf-8"?>
<!-- Generator: Adobe Illustrator 16.0.0, SVG Export Plug-In . SVG Version: 6.00 Build 0)  -->
<!DOCTYPE svg PUBLIC "-//W3C//DTD SVG 1.1//EN" "http://www.w3.org/Graphics/SVG/1.1/DTD/svg11.dtd">
<svg version="1.1" id="Public_Icon" xmlns="http://www.w3.org/2000/svg" xmlns:xlink="http://www.w3.org/1999/xlink" x="0px"
	 y="0px" width="20px" height="20px" viewBox="0 0 20 20" enable-background="new 0 0 20 20" xml:space="preserve">
<g>
	<g>
		<path fill="#9A9FBF" d="M10.007,0C5.53,0,1.741,2.946,0.47,7.008h2.118c1.187-2.931,4.056-5,7.413-5c4.418,0,7.999,3.582,7.999,8
			s-3.581,8-7.999,8c-3.356,0-6.226-2.069-7.413-5H0.477C1.752,17.061,5.536,20,10.007,20C15.525,20,20,15.522,20,10
			C20,4.477,15.525,0,10.007,0z M2,9.008H0v2h2V9.008z M9.999,4.008c-0.552,0-1,0.448-1,1v6h5c0.553,0,1-0.447,1-1s-0.447-1-1-1h-3
			v-4C10.999,4.456,10.552,4.008,9.999,4.008z"/>
	</g>
</g>
</svg>
