<?xml version="1.0" encoding="utf-8"?>
<!-- Generator: Adobe Illustrator 16.0.0, SVG Export Plug-In . SVG Version: 6.00 Build 0)  -->
<!DOCTYPE svg PUBLIC "-//W3C//DTD SVG 1.1//EN" "http://www.w3.org/Graphics/SVG/1.1/DTD/svg11.dtd">
<svg version="1.1" id="Comment_Icon" xmlns="http://www.w3.org/2000/svg" xmlns:xlink="http://www.w3.org/1999/xlink" x="0px"
	 y="0px" width="20px" height="20px" viewBox="0 0 20 20" enable-background="new 0 0 20 20" xml:space="preserve">
<g>
	<rect x="4" y="4" fill="#9A9FBF" width="12" height="2"/>
	<rect x="4" y="8" fill="#9A9FBF" width="8" height="2"/>
	<path fill="#9A9FBF" d="M18,0H2C0.895,0,0,0.896,0,2v10c0,1.104,0.896,2,2,2c0,0,0.375,0,1,0v6l8-5.998V14l0,0h1v-2h-1l0,0
		l-6,4.141V12H3H2V2h16v10l0,0v2l0,0c1.104,0,2-0.896,2-2V2C20,0.896,19.104,0,18,0z"/>
</g>
<rect x="14" y="12" fill="#9A9FBF" width="2" height="2"/>
</svg>
