<?xml version="1.0" encoding="utf-8"?>
<!-- Generator: Adobe Illustrator 16.0.0, SVG Export Plug-In . SVG Version: 6.00 Build 0)  -->
<!DOCTYPE svg PUBLIC "-//W3C//DTD SVG 1.1//EN" "http://www.w3.org/Graphics/SVG/1.1/DTD/svg11.dtd">
<svg version="1.1" id="Edit_Icon" xmlns="http://www.w3.org/2000/svg" xmlns:xlink="http://www.w3.org/1999/xlink" x="0px" y="0px"
	 width="20px" height="20px" viewBox="0 0 20 20" enable-background="new 0 0 20 20" xml:space="preserve">
<path fill-rule="evenodd" clip-rule="evenodd" fill="#9A9FBF" d="M18,20h-5v-2h5V9h2v9C20,19.104,19.104,20,18,20z M9,20v-2h2v2H9z
	 M2,18h5v2H2c-1.104,0-2-0.896-2-2V2c0-1.104,0.896-2,2-2h9v2H2V18z"/>
<path fill="#9A9FBF" d="M6,14l5.16-0.734L20,4.425L15.575,0l-8.84,8.84L6,14z M15.575,2.95l1.475,1.475L15.575,5.9L14.1,4.425
	L15.575,2.95z M12.625,5.9L14.1,7.375l-3.922,3.921l-1.721,0.248l0.246-1.722L12.625,5.9z"/>
</svg>
