<?xml version="1.0" encoding="utf-8"?>
<!-- Generator: Adobe Illustrator 16.0.0, SVG Export Plug-In . SVG Version: 6.00 Build 0)  -->
<!DOCTYPE svg PUBLIC "-//W3C//DTD SVG 1.1//EN" "http://www.w3.org/Graphics/SVG/1.1/DTD/svg11.dtd">
<svg version="1.1" id="Forums_Icon" xmlns="http://www.w3.org/2000/svg" xmlns:xlink="http://www.w3.org/1999/xlink" x="0px"
	 y="0px" width="20px" height="20px" viewBox="0 0 20 20" enable-background="new 0 0 20 20" xml:space="preserve">
<g>
	<g>
		<path fill="#9A9FBF" d="M18,0H2C0.896,0,0,0.896,0,2v16c0,1.104,0.896,2,2,2h16c1.104,0,2-0.896,2-2v-2.001h-2V18H2V7.999h16v2h2
			V2C20,0.896,19.104,0,18,0z M18,5.999H2V2h16V5.999z M18,14h2v-2h-2V14z M5,2.999H3v2h2V2.999z M8,2.999H6v2h2V2.999z M11,2.999H9
			v2h2V2.999z M7,9.999H5v2h2V9.999z M15,11.999v-2h-2v2H15z M9.986,15.995c1.654,0,2.996-0.849,2.996-1.895V14H6.991v0.101
			C6.991,15.146,8.332,15.995,9.986,15.995z"/>
	</g>
</g>
</svg>
