<?xml version="1.0" encoding="utf-8"?>
<!-- Generator: Adobe Illustrator 16.0.0, SVG Export Plug-In . SVG Version: 6.00 Build 0)  -->
<!DOCTYPE svg PUBLIC "-//W3C//DTD SVG 1.1//EN" "http://www.w3.org/Graphics/SVG/1.1/DTD/svg11.dtd">
<svg version="1.1" id="Home_Icon" xmlns="http://www.w3.org/2000/svg" xmlns:xlink="http://www.w3.org/1999/xlink" x="0px" y="0px"
	 width="20px" height="20px" viewBox="0 0 20 20" enable-background="new 0 0 20 20" xml:space="preserve">
<path fill-rule="evenodd" clip-rule="evenodd" fill="#9A9FBF" d="M16,20h-2h-1h-1v-6H8v6H7H6H4c-1.104,0-2-0.896-2-2v-1h2v1h2v-4v-2
	h2h4h2v2v4h2V8l2,1v9C18,19.104,17.104,20,16,20z M2,13h2v2H2V13z M2,9l2-1v3H2V9z"/>
<polygon fill="#9A9FBF" points="10,2.829 17.172,10 20,10 10,0 0,10 2.829,10 "/>
</svg>
