<?xml version="1.0" encoding="utf-8"?>
<!-- Generator: Adobe Illustrator 16.0.0, SVG Export Plug-In . SVG Version: 6.00 Build 0)  -->
<!DOCTYPE svg PUBLIC "-//W3C//DTD SVG 1.1//EN" "http://www.w3.org/Graphics/SVG/1.1/DTD/svg11.dtd">
<svg version="1.1" id="Info_Icon" xmlns="http://www.w3.org/2000/svg" xmlns:xlink="http://www.w3.org/1999/xlink" x="0px" y="0px"
	 width="20px" height="20px" viewBox="0 0 20 20" enable-background="new 0 0 20 20" xml:space="preserve">
<g>
	<g>
		<path fill="#9A9FBF" d="M10,0C4.477,0,0,4.474,0,9.993c0,4.478,2.946,8.266,7.008,9.538v-2.118c-2.931-1.188-5-4.056-5-7.412
			c0-4.418,3.582-7.999,8-7.999s8,3.581,8,7.999c0,3.356-2.07,6.226-5,7.412v2.11C17.061,18.248,20,14.465,20,9.993
			C20,4.474,15.521,0,10,0z M9.008,15.001h2v-6h-2V15.001z M9.008,7.001h2v-2h-2V7.001z M9.008,20h2v-2h-2V20z"/>
	</g>
</g>
</svg>
