<?xml version="1.0" encoding="utf-8"?>
<!-- Generator: Adobe Illustrator 16.0.0, SVG Export Plug-In . SVG Version: 6.00 Build 0)  -->
<!DOCTYPE svg PUBLIC "-//W3C//DTD SVG 1.1//EN" "http://www.w3.org/Graphics/SVG/1.1/DTD/svg11.dtd">
<svg version="1.1" id="Invitations_-_Send_Invites_Icon"
	 xmlns="http://www.w3.org/2000/svg" xmlns:xlink="http://www.w3.org/1999/xlink" x="0px" y="0px" width="20px" height="20px"
	 viewBox="0 0 20 20" enable-background="new 0 0 20 20" xml:space="preserve">
<path fill-rule="evenodd" clip-rule="evenodd" fill="#9A9FBF" d="M18,18h-5v-2h5V4H2v12h5v2H2c-1.104,0-2-0.896-2-2V4
	c0-1.104,0.896-2,2-2h16c1.104,0,2,0.896,2,2v12C20,17.104,19.104,18,18,18z M11,18H9v-2h2V18z"/>
<path fill="#9A9FBF" d="M18.781,5.438l-8.334,4.219l-0.286,0.145l-0.16,0.161l-0.16-0.161L9.555,9.656l-7.93-4.031L0,6
	c0,0.488,0.186,0.977,0.559,1.35l8.093,4.092C9.024,11.813,9.513,12,10.001,12s0.977-0.187,1.349-0.559l8.092-4.092
	C19.814,6.977,20,6.488,20,6L18.781,5.438z"/>
</svg>
