<?xml version="1.0" encoding="utf-8"?>
<!-- Generator: Adobe Illustrator 16.0.0, SVG Export Plug-In . SVG Version: 6.00 Build 0)  -->
<!DOCTYPE svg PUBLIC "-//W3C//DTD SVG 1.1//EN" "http://www.w3.org/Graphics/SVG/1.1/DTD/svg11.dtd">
<svg version="1.1" id="Pin_Icon" xmlns="http://www.w3.org/2000/svg" xmlns:xlink="http://www.w3.org/1999/xlink" x="0px" y="0px"
	 width="20px" height="20px" viewBox="0 0 20 20" enable-background="new 0 0 20 20" xml:space="preserve">
<path fill="#9A9FBF" d="M7,14H2.896c0.708-1.195,1.787-2.205,3.033-2.911L7,10.514V9.349V6V4H4.886H5V2h10v2h0.114H13v2v3.349v1.166
	l1.072,0.575C15.318,11.795,16.291,12.805,17,14l0,0v2h3c-0.594-2.838-2-5.243-5-6.651V6h1.138C16.702,6,17,5.552,17,5V1
	c0-0.552-0.298-1-0.862-1H3.863C3.298,0,3,0.448,3,1v4c0,0.552,0.298,1,0.863,1H5v3.349C2,10.757,0.594,13.162,0,16h7V14z"/>
<rect x="9" y="14" fill="#9A9FBF" width="2" height="6"/>
<rect x="13" y="14" fill="#9A9FBF" width="2" height="2"/>
</svg>
