<?xml version="1.0" encoding="utf-8"?>
<!-- Generator: Adobe Illustrator 16.0.0, SVG Export Plug-In . SVG Version: 6.00 Build 0)  -->
<!DOCTYPE svg PUBLIC "-//W3C//DTD SVG 1.1//EN" "http://www.w3.org/Graphics/SVG/1.1/DTD/svg11.dtd">
<svg version="1.1" id="Play_Icon" xmlns="http://www.w3.org/2000/svg" xmlns:xlink="http://www.w3.org/1999/xlink" x="0px" y="0px"
	 width="20px" height="20px" viewBox="0 0 20 20" enable-background="new 0 0 20 20" xml:space="preserve">
<path fill="#9A9FBF" d="M17.068,6.972L6.088,0.577C5.422,0.193,4.773,0,4.121,0C2.61,0,1,1.12,1,3.58V7h2V3.58
	C3,2.579,3.426,2,4.121,2C4.408,2,4.73,2.098,5.09,2.306l10.985,6.399c1.236,0.711,1.299,1.877,0.06,2.589L5.083,17.692
	c-0.36,0.208-0.675,0.307-0.962,0.307c-0.695,0-1.121-0.58-1.121-1.58V13H1v3.419c0,2.46,1.61,3.58,3.121,3.58
	c0.653,0,1.311-0.193,1.971-0.575l11.047-6.399c1.202-0.69,1.894-1.781,1.895-2.988C19.033,8.807,18.316,7.689,17.068,6.972z"/>
<rect x="1" y="9" fill="#9A9FBF" width="2" height="2"/>
</svg>
