<?xml version="1.0" encoding="utf-8"?>
<!-- Generator: Adobe Illustrator 16.0.0, SVG Export Plug-In . SVG Version: 6.00 Build 0)  -->
<!DOCTYPE svg PUBLIC "-//W3C//DTD SVG 1.1//EN" "http://www.w3.org/Graphics/SVG/1.1/DTD/svg11.dtd">
<svg version="1.1" id="Points_Icon" xmlns="http://www.w3.org/2000/svg" xmlns:xlink="http://www.w3.org/1999/xlink" x="0px"
	 y="0px" width="20px" height="20px" viewBox="0 0 20 20" enable-background="new 0 0 20 20" xml:space="preserve">
<polygon fill="#9A9FBF" points="9.911,6 9.011,0 6.95,0 3,12 0,12 0,14 5,14 5,13 7.663,4.495 8,6 "/>
<rect x="8" y="8" fill="#9A9FBF" width="2" height="1.999"/>
<polygon fill="#9A9FBF" points="18,13 16,6.859 16,6 14,6 14,6.85 11.337,15.506 10.811,12 8.789,12 9.989,20 12.046,20 
	14.965,10.516 16,14.139 16,15 18,15 20,15 20,13 "/>
</svg>
