<?xml version="1.0" encoding="utf-8"?>
<!-- Generator: Adobe Illustrator 16.0.0, SVG Export Plug-In . SVG Version: 6.00 Build 0)  -->
<!DOCTYPE svg PUBLIC "-//W3C//DTD SVG 1.1//EN" "http://www.w3.org/Graphics/SVG/1.1/DTD/svg11.dtd">
<svg version="1.1" id="Portfolio_Icon" xmlns="http://www.w3.org/2000/svg" xmlns:xlink="http://www.w3.org/1999/xlink" x="0px"
	 y="0px" width="20px" height="20px" viewBox="0 0 20 20" enable-background="new 0 0 20 20" xml:space="preserve">
<path fill-rule="evenodd" clip-rule="evenodd" fill="#9A9FBF" d="M18,14H8c-1.104,0-2-0.896-2-2V2c0-1.104,0.896-2,2-2h2v2H8v10h10
	V2h-2V0h2c1.104,0,2,0.896,2,2v10C20,13.104,19.104,14,18,14z M16,6v2v2h-2h-2h-2V8V6V4h6V6z M14,6h-2v2h2V6z M12,0h2v2h-2V0z M2,18
	h10v-2h2v2c0,1.104-0.896,2-2,2H2c-1.104,0-2-0.896-2-2V8c0-1.104,0.896-2,2-2h2v2H2V18z"/>
</svg>
