<?xml version="1.0" encoding="utf-8"?>
<!-- Generator: Adobe Illustrator 16.0.0, SVG Export Plug-In . SVG Version: 6.00 Build 0)  -->
<!DOCTYPE svg PUBLIC "-//W3C//DTD SVG 1.1//EN" "http://www.w3.org/Graphics/SVG/1.1/DTD/svg11.dtd">
<svg version="1.1" id="Private_Icon" xmlns="http://www.w3.org/2000/svg" xmlns:xlink="http://www.w3.org/1999/xlink" x="0px"
	 y="0px" width="20px" height="20px" viewBox="0 0 20 20" enable-background="new 0 0 20 20" xml:space="preserve">
<g>
	<g>
		<path fill="#9A9FBF" d="M9,20h2v-2H9V20z M10,11c-1.656,0-3,1.343-3,3s1.344,3,3,3c1.657,0,3-1.343,3-3S11.657,11,10,11z M11,15H9
			v-2h2V15z M17,8H3c-1.104,0-2,0.896-2,2v8c0,1.104,0.896,2,2,2h4v-2H3v-8h14v8h-4v2h4c1.104,0,2-0.896,2-2v-8
			C19,8.896,18.104,8,17,8z"/>
	</g>
</g>
<path fill="#9A9FBF" d="M3.281,9.188H5V6.824C5,4.164,7.243,2,10,2s5,2.164,5,4.824v2.364h2V6.824C17,3.055,13.866,0,10,0
	C6.134,0,3,3.055,3,6.824v2.378C3.094,9.198,3.187,9.188,3.281,9.188z"/>
<path fill="#9A9FBF" d="M9,9.531V6.924C9,6.415,9.449,6,10,6c0.552,0,1,0.415,1,0.924v2.607h2V6.924C13,5.309,11.657,4,10,4
	C8.343,4,7,5.309,7,6.924v2.607H9z"/>
</svg>
