<?xml version="1.0" encoding="utf-8"?>
<!-- Generator: Adobe Illustrator 16.0.0, SVG Export Plug-In . SVG Version: 6.00 Build 0)  -->
<!DOCTYPE svg PUBLIC "-//W3C//DTD SVG 1.1//EN" "http://www.w3.org/Graphics/SVG/1.1/DTD/svg11.dtd">
<svg version="1.1" id="Services_Icon" xmlns="http://www.w3.org/2000/svg" xmlns:xlink="http://www.w3.org/1999/xlink" x="0px"
	 y="0px" width="20px" height="20px" viewBox="0 0 20 20" enable-background="new 0 0 20 20" xml:space="preserve">
<rect x="12" y="14" fill="#9A9FBF" width="2" height="2"/>
<path fill="#9A9FBF" d="M18.393,3.236L15.199,6.43L13.57,4.801l3.193-3.194C15.334,0.536,13.632,0,11.929,0
	C9.869,0,7.81,0.785,6.238,2.357C4.301,4.294,3.56,6.97,4.005,9.477L1.35,12.133c-1.8,1.8-1.8,4.717,0,6.518
	c0.9,0.9,2.079,1.35,3.259,1.35c1.179,0,2.358-0.449,3.259-1.35L10,16.517V13.87l-0.155-0.027L9.108,14.58l-2.655,2.656
	C5.96,17.729,5.305,18,4.608,18s-1.352-0.271-1.844-0.764c-1.017-1.018-1.017-2.673,0-3.689l2.656-2.656l0.737-0.737L5.975,9.127
	c-0.348-1.956,0.28-3.958,1.677-5.356C8.794,2.629,10.313,2,11.929,2c0.493,0,0.976,0.058,1.443,0.171l-1.216,1.216l-1.414,1.414
	l1.414,1.414l1.629,1.629l1.414,1.415l1.414-1.415l1.211-1.21c0.48,2.001-0.071,4.191-1.596,5.714
	c-0.073,0.073-0.152,0.139-0.229,0.207v2.464c0.586-0.342,1.142-0.755,1.644-1.257C20.516,10.89,20.76,6.395,18.393,3.236z"/>
</svg>
