<?xml version="1.0" encoding="utf-8"?>
<!-- Generator: Adobe Illustrator 16.0.0, SVG Export Plug-In . SVG Version: 6.00 Build 0)  -->
<!DOCTYPE svg PUBLIC "-//W3C//DTD SVG 1.1//EN" "http://www.w3.org/Graphics/SVG/1.1/DTD/svg11.dtd">
<svg version="1.1" id="Share_Icon" xmlns="http://www.w3.org/2000/svg" xmlns:xlink="http://www.w3.org/1999/xlink" x="0px" y="0px"
	 width="20px" height="20px" viewBox="0 0 20 20" enable-background="new 0 0 20 20" xml:space="preserve">
<g>
	<g>
		<path fill-rule="evenodd" clip-rule="evenodd" fill="#9A9FBF" d="M16,12c-1.202,0-2.268,0.541-3.001,1.381l-5.09-2.544
			C7.967,10.566,8,10.288,8,10S7.967,9.434,7.909,9.163l5.09-2.544C13.732,7.458,14.798,8,16,8c2.209,0,4-1.791,4-4s-1.791-4-4-4
			s-4,1.791-4,4c0,0.288,0.033,0.566,0.091,0.837L7.001,7.381C6.268,6.542,5.202,6,4,6c-2.209,0-4,1.791-4,4s1.791,4,4,4
			c1.202,0,2.268-0.541,3.001-1.381l5.089,2.544C12.033,15.434,12,15.713,12,16c0,2.209,1.791,4,4,4s4-1.791,4-4S18.209,12,16,12z
			 M16,2c1.104,0,2,0.896,2,2s-0.896,2-2,2s-2-0.896-2-2S14.896,2,16,2z M4,12c-1.104,0-2-0.896-2-2s0.896-2,2-2s2,0.896,2,2
			S5.104,12,4,12z M16,18c-1.104,0-2-0.896-2-2s0.896-2,2-2s2,0.896,2,2S17.104,18,16,18z M3,11h2V9H3V11z"/>
	</g>
</g>
</svg>
