<?xml version="1.0" encoding="utf-8"?>
<!-- Generator: Adobe Illustrator 16.0.0, SVG Export Plug-In . SVG Version: 6.00 Build 0)  -->
<!DOCTYPE svg PUBLIC "-//W3C//DTD SVG 1.1//EN" "http://www.w3.org/Graphics/SVG/1.1/DTD/svg11.dtd">
<svg version="1.1" id="Capa_1" xmlns="http://www.w3.org/2000/svg" xmlns:xlink="http://www.w3.org/1999/xlink" x="0px" y="0px"
	 width="25px" height="24px" viewBox="0 0 25 24" enable-background="new 0 0 25 24" xml:space="preserve">
<g>
	<g>
		<path fill-rule="evenodd" clip-rule="evenodd" fill="#fff" d="M9.997,4.018c-5.523,0-10,4.474-10,9.994
			c0,4.478,2.947,8.267,7.008,9.537v-2.117c-2.931-1.188-5-4.057-5-7.414c0-4.417,3.582-7.999,8-7.999c4.418,0,8,3.582,8,7.999
			c0,3.357-2.069,6.227-5,7.414v2.111c4.053-1.275,6.992-5.059,6.992-9.531C19.997,8.492,15.52,4.018,9.997,4.018z M7.005,12.019h-2
			v1.999h2V12.019z M13.005,12.019v1.999h2v-1.999H13.005z M6.996,16.121c0,1.046,1.341,1.895,2.996,1.895
			c1.655,0,2.996-0.849,2.996-1.895v-0.101H6.996V16.121z M9.005,24.019h2v-2.001h-2V24.019z M10.354,2.018h6.651
			c0,0,1.121,0.313,1.637,0.523l1.798-1.348c-1.31-0.745-2.821-1.174-4.435-1.174C13.863,0.019,11.899,0.77,10.354,2.018z
			 M24.354,5.67l-1.598,1.597c0.146,0.563,0.248,1.142,0.248,1.752c0,1.317-0.366,2.544-1,3.592v3.105c1.839-1.646,3-4.035,3-6.698
			C25.005,7.833,24.771,6.706,24.354,5.67z M23.005,3.019h-2v2h2V3.019z"/>
	</g>
</g>
</svg>
