<?xml version="1.0" encoding="utf-8"?>
<!-- Generator: Adobe Illustrator 16.0.0, SVG Export Plug-In . SVG Version: 6.00 Build 0)  -->
<!DOCTYPE svg PUBLIC "-//W3C//DTD SVG 1.1//EN" "http://www.w3.org/Graphics/SVG/1.1/DTD/svg11.dtd">
<svg version="1.1" xmlns="http://www.w3.org/2000/svg" xmlns:xlink="http://www.w3.org/1999/xlink" x="0px" y="0px" width="50px"
	 height="50px" viewBox="0 0 50 50" enable-background="new 0 0 50 50" xml:space="preserve">
<g id="Capa_1">
	<path fill-rule="evenodd" clip-rule="evenodd" fill="#FF5E3A" d="M25,0c13.807,0,25,11.193,25,25c0,13.807-11.193,25-25,25
		c-13.807,0-25-11.193-25-25C0,11.193,11.193,0,25,0z"/>
</g>
<g id="Capa_2">
	<g>
		<g>
			<path fill="#FFFFFF" d="M20.01,18.184V16h-2v2.184c-1.163,0.414-2,1.512-2,2.816s0.837,2.402,2,2.816V30h2v-6.186
				c1.163-0.412,2-1.51,2-2.814S21.173,18.598,20.01,18.184z M20.01,22h-2v-2h2V22z M32.01,18.184V16h-2v2.184
				c-1.162,0.414-2,1.512-2,2.816s0.838,2.402,2,2.816V34h2V23.814c1.162-0.412,2-1.51,2-2.814S33.172,18.598,32.01,18.184z
				 M32.01,22h-2v-2h2V22z M26.01,26.184V16h-2v10.184c-1.163,0.414-2,1.512-2,2.816s0.837,2.402,2,2.816V34h2v-2.184
				c1.162-0.414,2-1.514,2-2.816C28.01,27.695,27.172,26.598,26.01,26.184z M26.01,29.999h-2V28h2V29.999z M18.01,34h2v-2h-2V34z"/>
		</g>
	</g>
</g>
</svg>
