<?xml version="1.0" encoding="utf-8"?>
<!-- Generator: Adobe Illustrator 16.0.0, SVG Export Plug-In . SVG Version: 6.00 Build 0)  -->
<!DOCTYPE svg PUBLIC "-//W3C//DTD SVG 1.1//EN" "http://www.w3.org/Graphics/SVG/1.1/DTD/svg11.dtd">
<svg version="1.1" id="Capa_1" xmlns="http://www.w3.org/2000/svg" xmlns:xlink="http://www.w3.org/1999/xlink" x="0px" y="0px"
	 width="18px" height="16px" viewBox="0 0 18 16" enable-background="new 0 0 18 16" xml:space="preserve">
<g>
	<g>
		<path fill-rule="evenodd" clip-rule="evenodd" fill="#fff" d="M16,0H2C0.895,0,0,0.896,0,2v9c0,1.104,0.896,2,2,2
			c0,0,0.375,0,1,0v-2H2V2h14v11c1.104,0,2-0.896,2-2V2C18,0.896,17.104,0,16,0z M9,13h1v-2H9V13z M12,13h2v-2h-2V13z M4,6h10V4H4V6
			z M4,9h6V7H4V9z"/>
	</g>
</g>
<polygon fill-rule="evenodd" clip-rule="evenodd" fill="#fff" points="9,11 5,13.141 5,11 3,11 3,13 3,16 9,13.002 9,13 9,13
	9,11 "/>
</svg>
