<?xml version="1.0" encoding="UTF-8" standalone="no"?> <svg xmlns="http://www.w3.org/2000/svg" width="18" height="16" viewBox="0 0 48 40.55">
  <defs>
    <style>
      .a {
        fill: #38a9ff;
      }
    </style>
  </defs>
  <title>28 Like</title>
  <g>
    <path class="a" d="M18.44,17l5.25-8.58a3.23,3.23,0,0,0,.47-1.68V2A2,2,0,0,1,26,0c2.86-.19,7.77,1.07,5.5,12.89H43a5,5,0,0,1,5,5c0,5.32-1,13.87-6.2,20.57a5.27,5.27,0,0,1-3.87,2c-3.88.21-12,.32-17.85-1.66A3,3,0,0,1,18,35.92V18.57A3,3,0,0,1,18.44,17Z"/>
    <path class="a" d="M11,17.54H3a3,3,0,0,0-3,3v17a3,3,0,0,0,3,3h8a3,3,0,0,0,3-3v-17A3,3,0,0,0,11,17.54Zm-4,18a2,2,0,1,1,2-2A2,2,0,0,1,7,35.54Z"/>
  </g>
</svg>
