<?xml version="1.0" encoding="utf-8"?>
<!-- Generator: Adobe Illustrator 16.0.0, SVG Export Plug-In . SVG Version: 6.00 Build 0)  -->
<!DOCTYPE svg PUBLIC "-//W3C//DTD SVG 1.1//EN" "http://www.w3.org/Graphics/SVG/1.1/DTD/svg11.dtd">
<svg version="1.1" id="Capa_1" xmlns="http://www.w3.org/2000/svg" xmlns:xlink="http://www.w3.org/1999/xlink" x="0px" y="0px"
	 width="18px" height="22px" viewBox="0 0 18 22" enable-background="new 0 0 18 22" xml:space="preserve">
<path fill="#fff" d="M16.135,7.867L5.203,0.674C4.516,0.226,3.821,0,3.132,0h0C1.623,0,0,1.183,0,3.779v7.223v6.031v1.19
	C0,20.818,1.623,22,3.131,22c0.69,0,1.385-0.226,2.066-0.671L16.2,14.131c1.142-0.741,1.8-1.868,1.8-3.09
	C18.001,9.795,17.321,8.638,16.135,7.867z M15.105,12.457L4.104,19.655C3.745,19.89,3.417,20,3.131,20C2.439,20,2,19.348,2,18.224
	c0,0,0-0.45,0-1.19C2,17.024,2,17.01,2,17H0v-6h2c0-3.611,0-7.221,0-7.221C2,2.653,2.439,2,3.132,2c0.286,0,0.613,0.11,0.972,0.344
	l10.941,7.199C16.276,10.345,16.339,11.656,15.105,12.457z"/>
<rect y="13" fill="#fff" width="2" height="2"/>
</svg>
