<?xml version="1.0" encoding="utf-8"?>
<!-- Generator: Adobe Illustrator 16.0.0, SVG Export Plug-In . SVG Version: 6.00 Build 0)  -->
<!DOCTYPE svg PUBLIC "-//W3C//DTD SVG 1.1//EN" "http://www.w3.org/Graphics/SVG/1.1/DTD/svg11.dtd">
<svg version="1.1" id="Public_Icon" xmlns="http://www.w3.org/2000/svg" xmlns:xlink="http://www.w3.org/1999/xlink" x="0px"
	 y="0px" width="20px" height="20px" viewBox="0 0 20 20" enable-background="new 0 0 20 20" xml:space="preserve">
<g>
	<rect x="9.008" y="18" fill="#9A9FBF" width="2" height="2"/>
	<path fill="#9A9FBF" d="M20,9.993C20,4.474,15.522,0,10,0C4.477,0-0.004,4.474-0.004,9.993C-0.004,14.471,3,18.259,7,19.53v-2.052
		c1-0.486,1.051-1.107,1.196-1.549c0.432-1.308-0.061-2.92-1.199-3.922c-0.814-0.716-0.671-1.24,0.952-3.502
		c0.31-0.432,0.634-0.883,0.945-1.359c0.66-1.008,0.522-1.85,0.289-2.377c-0.427-0.97-1.518-1.604-2.563-2.007
		c0.666-0.312,1.38-0.533,2.13-0.652c0.202,0.769,0.633,2.083,1.354,2.695c0.844,0.716,2.405,1.31,4.063,1.31
		c0.84,0,1.7-0.166,2.508-0.532c0.252,0.379,0.471,0.782,0.656,1.203c-1.979-0.429-4.911-0.732-6.803,0.601
		c-1.194,0.841-2.204,2.651-1.828,4.225c0.268,1.122,1.185,1.876,2.516,2.068c1.409,0.205,2.963,1.351,3.137,2.314
		c0.027,0.148,0.094,0.569-0.646,1.072C13.476,17.187,13,17.313,13,17.412v2.111c0-0.146,0.921-0.331,1.356-0.542l0.014,0.022
		c0.072-0.04,0.126-0.083,0.193-0.124C17.79,17.223,20,13.868,20,9.993z M7.353,5.575C7.373,5.62,7.425,5.74,7.222,6.051
		C6.926,6.502,6.619,6.931,6.325,7.34c-1.389,1.937-2.963,4.132-0.647,6.17c0.537,0.472,0.805,1.243,0.624,1.793
		C6.119,15.854,5.5,16.07,4.919,16.159C3.144,14.693,2.008,12.482,2.008,10c0-2.277,0.956-4.327,2.483-5.784
		C5.749,4.49,7.127,5.062,7.353,5.575z M11.397,3.279c-0.159-0.135-0.391-0.646-0.583-1.237c1.692,0.169,3.223,0.871,4.437,1.927
		C13.723,4.361,12.024,3.811,11.397,3.279z M11.502,11.7c-0.751-0.109-0.829-0.433-0.858-0.555C10.497,10.531,11,9.499,11.679,9.021
		c1.485-1.046,4.539-0.502,6.26-0.023C17.979,9.327,18.008,9.66,18.008,10c0,1.941-0.707,3.706-1.858,5.09
		C15.492,13.354,13.348,11.968,11.502,11.7z"/>
</g>
</svg>
