<?xml version="1.0" encoding="utf-8"?>
<!-- Generator: Adobe Illustrator 16.0.0, SVG Export Plug-In . SVG Version: 6.00 Build 0)  -->
<!DOCTYPE svg PUBLIC "-//W3C//DTD SVG 1.1//EN" "http://www.w3.org/Graphics/SVG/1.1/DTD/svg11.dtd">
<svg version="1.1" xmlns="http://www.w3.org/2000/svg" xmlns:xlink="http://www.w3.org/1999/xlink" x="0px" y="0px" width="66px"
	 height="41px" viewBox="0 0 66 41" enable-background="new 0 0 66 41" xml:space="preserve">
<g id="Capa_1">
	<rect x="32.011" y="37" fill="#9A9FBF" width="4" height="4"/>
	<path fill="#9A9FBF" d="M47.783,22.771c0-5.922-5.14-10.73-11.555-10.92c-3.063-3.559-7.801-5.853-13.134-5.853
		c-8.889,0-16.137,6.355-16.673,14.371C2.607,22.194,0,25.845,0,30.061C0,36.103,5.347,41,11.945,41h5.131h10h0.934v-4h-0.934h-10
		h-5.131C7.564,37,4,33.887,4,30.061c0-2.528,1.589-4.859,4.148-6.083l2.109-1.009l0.156-2.333
		c0.398-5.965,5.969-10.638,12.682-10.638c3.979,0,7.662,1.626,10.102,4.462l1.151,1.337l1.763,0.052
		c4.303,0.128,7.673,3.167,7.673,6.922v2.755l2.573,0.982c2.308,0.88,3.798,2.848,3.798,5.013c0,4.529-3.455,5.479-6.354,5.479
		h-1.955h-1.835v4h1.835h1.955c5.718,0,10.354-3.073,10.354-9.479C54.154,27.576,51.523,24.198,47.783,22.771z"/>
</g>
<g id="Capa_2">
	<path fill="#9A9FBF" d="M59.578,14.371C59.043,6.355,51.795,0,42.905,0c-5.333,0-10.071,2.294-13.134,5.853
		c-2.377,0.07-4.578,0.777-6.408,1.938c1.908,0.119,4.622,0.586,7.252,2.039l1.037-0.03l1.151-1.337C35.243,5.626,38.926,4,42.905,4
		c6.712,0,12.283,4.673,12.682,10.638l0.155,2.333l2.109,1.009C60.41,19.203,62,21.534,62,24.063c0,3.826-3.564,6.939-7.945,6.939
		h-1.87c0.136,0.971,0.087,2.336-0.602,4h2.472C60.652,35.002,66,30.104,66,24.063C66,19.847,63.393,16.196,59.578,14.371z"/>
</g>
</svg>
