<?xml version="1.0" encoding="utf-8"?>
<!-- Generator: Adobe Illustrator 16.0.0, SVG Export Plug-In . SVG Version: 6.00 Build 0)  -->
<!DOCTYPE svg PUBLIC "-//W3C//DTD SVG 1.1//EN" "http://www.w3.org/Graphics/SVG/1.1/DTD/svg11.dtd">
<svg version="1.1" xmlns="http://www.w3.org/2000/svg" xmlns:xlink="http://www.w3.org/1999/xlink" x="0px" y="0px" width="64px"
	 height="55px" viewBox="0 0 64 55" enable-background="new 0 0 64 55" xml:space="preserve">
<g id="Capa_1">
	<rect x="32.011" y="51" fill="#9A9FBF" width="4" height="4"/>
	<path fill="#9A9FBF" d="M47.783,36.771c0-5.922-5.14-10.73-11.555-10.92c-3.063-3.559-7.8-5.853-13.134-5.853
		c-8.889,0-16.137,6.355-16.673,14.371C2.607,36.194,0,39.845,0,44.061C0,50.103,5.347,55,11.945,55h5.131h10h0.934v-4h-0.934h-10
		h-5.131C7.564,51,4,47.887,4,44.061c0-2.528,1.589-4.859,4.148-6.083l2.109-1.009l0.156-2.333
		c0.398-5.965,5.969-10.638,12.682-10.638c3.979,0,7.662,1.626,10.102,4.462l1.151,1.337l1.763,0.052
		c4.303,0.128,7.673,3.167,7.673,6.922v2.755l2.573,0.982c2.308,0.88,3.798,2.848,3.798,5.013c0,4.529-3.455,5.479-6.354,5.479
		h-1.955h-1.835v4h1.835h1.955c5.718,0,10.354-3.073,10.354-9.479C54.154,41.576,51.523,38.198,47.783,36.771z"/>
</g>
<g id="Capa_2">
	<g>
		<g>
			<path fill-rule="evenodd" clip-rule="evenodd" fill="#9A9FBF" d="M37,12.002c-6.624,0-12.234,4.298-14.221,10.254l4.044,0.578
				c1.643-4.008,5.578-6.832,10.177-6.832c6.075,0,11,4.925,11,11c0,2.748-1.015,5.255-2.681,7.183L46,35.002
				c0,0,0.809,1.617,1.398,2.796C50.23,35.069,52,31.245,52,27.002C52,18.717,45.284,12.002,37,12.002z"/>
		</g>
	</g>
</g>
<g id="Capa_3">
	<g>
		<g>
			<path fill-rule="evenodd" clip-rule="evenodd" fill="#9A9FBF" d="M37,0c-1.104,0-2,0.896-2,2v6c0,1.104,0.896,2,2,2s2-0.896,2-2
				V2C39,0.896,38.104,0,37,0z M62,25h-6c-1.104,0-2,0.896-2,2s0.896,2,2,2h6c1.104,0,2-0.896,2-2S63.104,25,62,25z M56.092,7.908
				c-0.781-0.781-2.047-0.781-2.828,0l-4.243,4.242c-0.78,0.781-0.78,2.048,0,2.828c0.781,0.781,2.048,0.781,2.829,0l4.242-4.242
				C56.873,9.955,56.873,8.689,56.092,7.908z M20.736,7.908c-0.781-0.781-2.047-0.781-2.829,0c-0.781,0.781-0.781,2.047,0,2.828
				l4.243,4.242c0.781,0.781,2.048,0.781,2.829,0c0.781-0.78,0.781-2.047,0-2.828L20.736,7.908z"/>
		</g>
	</g>
</g>
</svg>
