<?xml version="1.0" encoding="utf-8"?>
<!-- Generator: Adobe Illustrator 16.0.0, SVG Export Plug-In . SVG Version: 6.00 Build 0)  -->
<!DOCTYPE svg PUBLIC "-//W3C//DTD SVG 1.1//EN" "http://www.w3.org/Graphics/SVG/1.1/DTD/svg11.dtd">
<svg version="1.1" xmlns="http://www.w3.org/2000/svg" xmlns:xlink="http://www.w3.org/1999/xlink" x="0px" y="0px" width="41px"
	 height="39px" viewBox="0 0 41 39" enable-background="new 0 0 41 39" xml:space="preserve">
<g id="Capa_4">
	<path fill="#9A9FBF" d="M5,12.684c1.641,3.641,3,7.155,3,8.225C8,22.613,6.654,24,5,24s-3-1.387-3-3.091
		C2,19.84,3.36,16.325,5,12.684 M5,8c0,0-5,10.098-5,12.909S2.238,26,5,26s5-2.279,5-5.091S5,8,5,8L5,8z"/>
</g>
<g id="Capa_3">
	<path fill="#9A9FBF" d="M36,4.78c1.641,3.723,3,7.283,3,8.311C39,14.695,37.654,16,36,16s-3-1.305-3-2.909
		C33,12.063,34.359,8.503,36,4.78 M36,0c0,0-5,10.38-5,13.091S33.238,18,36,18s5-2.198,5-4.909S36,0,36,0L36,0z"/>
</g>
<g id="Capa_2">
	<path fill="#9A9FBF" d="M22.015,19.377c2.456,4.948,5,10.76,5,12.623c0,2.757-2.243,5-5,5s-5-2.243-5-5
		C17.015,30.14,19.559,24.326,22.015,19.377 M22.015,15c0,0-7,13.134-7,17s3.134,7,7,7s7-3.134,7-7S22.015,15,22.015,15L22.015,15z"
		/>
</g>
</svg>
