<?xml version="1.0" encoding="utf-8"?>
<!-- Generator: Adobe Illustrator 16.0.0, SVG Export Plug-In . SVG Version: 6.00 Build 0)  -->
<!DOCTYPE svg PUBLIC "-//W3C//DTD SVG 1.1//EN" "http://www.w3.org/Graphics/SVG/1.1/DTD/svg11.dtd">
<svg version="1.1" xmlns="http://www.w3.org/2000/svg" xmlns:xlink="http://www.w3.org/1999/xlink" x="0px" y="0px" width="54px"
	 height="48px" viewBox="0 0 54 48" enable-background="new 0 0 54 48" xml:space="preserve">
<g id="Capa_1">
	<rect x="21.011" fill="#9A9FBF" width="4" height="4"/>
	<g>
		<path fill="#9A9FBF" d="M15,31.002h-3.055C7.564,31.002,4,27.889,4,24.063c0-2.528,1.589-4.859,4.148-6.083l2.109-1.009
			l0.156-2.333c0.268-4.01,2.879-7.429,6.598-9.244V1.055C11.097,3.177,6.828,8.293,6.422,14.371C2.607,16.196,0,19.847,0,24.063
			c0,6.042,5.347,10.939,11.945,10.939H15V31.002z"/>
		<path fill="#9A9FBF" d="M47.783,16.772c0-5.922-5.14-10.73-11.555-10.92c-1.864-2.167-4.355-3.854-7.218-4.851v4.312
			c1.603,0.756,3.036,1.812,4.186,3.148l1.151,1.337l1.763,0.052c4.303,0.128,7.673,3.167,7.673,6.922v2.755l2.573,0.982
			c2.308,0.88,3.798,2.848,3.798,5.013c0,4.529-3.455,5.479-6.354,5.479h-1.955h-1.835v4h1.835h1.955
			c5.718,0,10.199-3.031,10.199-9.438C54,21.62,51.523,18.2,47.783,16.772z"/>
	</g>
</g>
<g id="Capa_3">
	<g>
		<g>
			<path fill-rule="evenodd" clip-rule="evenodd" fill="#9A9FBF" d="M28.535,29.121L27.414,28H30c0.552,0,1-0.448,1-1
				c0-0.553-0.448-1-1-1h-2.586l1.121-1.121c0.391-0.391,0.391-1.024,0-1.415c-0.391-0.39-1.023-0.39-1.414,0L26,24.585V22
				c0-0.553-0.448-1-1-1c-0.553,0-1,0.447-1,1v2.585l-1.121-1.121c-0.391-0.39-1.024-0.39-1.415,0c-0.39,0.391-0.39,1.024,0,1.415
				L22.585,26H20c-0.553,0-1,0.447-1,1c0,0.552,0.447,1,1,1h2.585l-1.121,1.121c-0.39,0.391-0.39,1.023,0,1.414
				c0.391,0.391,1.024,0.391,1.415,0L24,29.414V32c0,0.552,0.447,1,1,1c0.552,0,1-0.448,1-1v-2.586l1.121,1.121
				c0.391,0.391,1.023,0.391,1.414,0S28.926,29.512,28.535,29.121z M37.166,37.166h-2.153l0.934-0.934
				c0.325-0.326,0.325-0.854,0-1.179s-0.854-0.325-1.179,0l-0.935,0.935v-2.155C33.833,33.373,33.46,33,33,33
				s-0.834,0.373-0.834,0.833v2.154l-0.934-0.934c-0.326-0.325-0.854-0.325-1.179,0s-0.325,0.853,0,1.179l0.934,0.934h-2.154
				C28.373,37.166,28,37.54,28,38s0.373,0.833,0.833,0.833h2.155l-0.935,0.935c-0.325,0.325-0.325,0.854,0,1.179
				s0.853,0.325,1.179,0l0.934-0.934v2.153C32.166,42.627,32.54,43,33,43s0.833-0.373,0.833-0.834v-2.154l0.935,0.935
				c0.325,0.325,0.854,0.325,1.179,0s0.325-0.854,0-1.179l-0.935-0.935h2.154C37.627,38.833,38,38.46,38,38
				S37.627,37.166,37.166,37.166z M23.166,42.166h-2.153l0.934-0.934c0.325-0.326,0.325-0.854,0-1.179s-0.854-0.325-1.179,0
				l-0.935,0.935v-2.155C19.833,38.373,19.46,38,19,38s-0.834,0.373-0.834,0.833v2.154l-0.934-0.934
				c-0.326-0.325-0.854-0.325-1.179,0s-0.325,0.853,0,1.179l0.934,0.934h-2.154C14.373,42.166,14,42.54,14,43
				s0.373,0.833,0.833,0.833h2.155l-0.935,0.935c-0.325,0.325-0.325,0.854,0,1.179s0.853,0.325,1.179,0l0.934-0.934v2.153
				C18.166,47.627,18.54,48,19,48s0.833-0.373,0.833-0.834v-2.154l0.935,0.935c0.325,0.325,0.854,0.325,1.179,0s0.325-0.854,0-1.179
				l-0.935-0.935h2.154C23.627,43.833,24,43.46,24,43S23.627,42.166,23.166,42.166z"/>
		</g>
	</g>
</g>
</svg>
