<?xml version="1.0" encoding="utf-8"?>
<!-- Generator: Adobe Illustrator 16.0.0, SVG Export Plug-In . SVG Version: 6.00 Build 0)  -->
<!DOCTYPE svg PUBLIC "-//W3C//DTD SVG 1.1//EN" "http://www.w3.org/Graphics/SVG/1.1/DTD/svg11.dtd">
<svg version="1.1" id="Capa_1" xmlns="http://www.w3.org/2000/svg" xmlns:xlink="http://www.w3.org/1999/xlink" x="0px" y="0px"
	 width="54px" height="54px" viewBox="0 0 54 54" enable-background="new 0 0 54 54" xml:space="preserve">
<g>
	<g>
		<path fill-rule="evenodd" clip-rule="evenodd" fill="#9A9FBF" d="M27,12c-6.15,0-11.428,3.704-13.744,9h4.531
			c1.963-3.008,5.353-5,9.213-5c6.075,0,11,4.925,11,11s-4.925,11-11,11c-3.86,0-7.25-1.992-9.213-5h-4.531
			c2.315,5.295,7.594,9,13.744,9c8.284,0,15-6.716,15-15S35.284,12,27,12z M16,29v-4h-4v4H16z M27,10c1.104,0,2-0.896,2-2V2
			c0-1.104-0.896-2-2-2s-2,0.896-2,2v6C25,9.104,25.896,10,27,10z M27,44c-1.104,0-2,0.896-2,2v6c0,1.104,0.896,2,2,2s2-0.896,2-2
			v-6C29,44.896,28.104,44,27,44z M52,25h-6c-1.104,0-2,0.896-2,2s0.896,2,2,2h6c1.104,0,2-0.896,2-2S53.104,25,52,25z M10,27
			c0-1.104-0.896-2-2-2H2c-1.104,0-2,0.896-2,2s0.896,2,2,2h6C9.104,29,10,28.104,10,27z M41.85,14.979l4.242-4.242
			c0.781-0.781,0.781-2.047,0-2.828s-2.047-0.781-2.828,0l-4.243,4.242c-0.78,0.781-0.78,2.048,0,2.828
			C39.802,15.76,41.068,15.76,41.85,14.979z M12.15,39.021l-4.243,4.243c-0.781,0.78-0.781,2.047,0,2.828
			c0.781,0.781,2.048,0.781,2.829,0l4.243-4.243c0.781-0.78,0.781-2.047,0-2.828S12.932,38.239,12.15,39.021z M41.85,39.021
			c-0.781-0.781-2.048-0.781-2.829,0c-0.78,0.781-0.78,2.048,0,2.828l4.243,4.243c0.781,0.781,2.047,0.781,2.828,0
			s0.781-2.048,0-2.828L41.85,39.021z M12.15,14.979c0.781,0.781,2.048,0.781,2.829,0c0.781-0.78,0.781-2.047,0-2.828l-4.243-4.242
			c-0.781-0.781-2.047-0.781-2.829,0c-0.781,0.781-0.781,2.047,0,2.828L12.15,14.979z"/>
	</g>
</g>
</svg>
