<?xml version="1.0" encoding="utf-8"?>
<!-- Generator: Adobe Illustrator 16.0.0, SVG Export Plug-In . SVG Version: 6.00 Build 0)  -->
<!DOCTYPE svg PUBLIC "-//W3C//DTD SVG 1.1//EN" "http://www.w3.org/Graphics/SVG/1.1/DTD/svg11.dtd">
<svg version="1.1" xmlns="http://www.w3.org/2000/svg" xmlns:xlink="http://www.w3.org/1999/xlink" x="0px" y="0px" width="18px"
	 height="42px" viewBox="0 0 18 42" enable-background="new 0 0 18 42" xml:space="preserve">
<g id="Capa_1">
	<g>
		<g>
			<path fill-rule="evenodd" clip-rule="evenodd" fill="#9A9FBF" d="M0,33c0,3.917,2.507,7.24,6,8.477v-2.159
				C3.637,38.193,2,35.791,2,33c0-3.171,2.109-5.846,5-6.706V24.23C2.993,25.141,0,28.718,0,33z M11,24.23v2.063
				c2.891,0.86,5,3.535,5,6.706c0,2.791-1.637,5.193-4,6.317v2.159c3.493-1.236,6-4.56,6-8.477C18,28.718,15.006,25.141,11,24.23z
				 M11,6H9v2h2V6z M11,10H9v2h2V10z M11,14H9v2h2V14z M11,18H9v2h2V18z M8,42h2v-2H8V42z"/>
		</g>
	</g>
</g>
<g id="Capa_2">
	<path fill="#9A9FBF" d="M7.011,25.875V4c0-1.103,0.897-2,2-2c1.103,0,2,0.897,2,2v21.875h2c0-9.375,0-21.875,0-21.875
		c0-2.209-1.791-4-4-4c-2.209,0-4,1.791-4,4c0,0,0,12.5,0,21.875H7.011z"/>
</g>
</svg>
