<?xml version="1.0" encoding="utf-8"?>
<!-- Generator: Adobe Illustrator 16.0.0, SVG Export Plug-In . SVG Version: 6.00 Build 0)  -->
<!DOCTYPE svg PUBLIC "-//W3C//DTD SVG 1.1//EN" "http://www.w3.org/Graphics/SVG/1.1/DTD/svg11.dtd">
<svg version="1.1" xmlns="http://www.w3.org/2000/svg" xmlns:xlink="http://www.w3.org/1999/xlink" x="0px" y="0px" width="47px"
	 height="34px" viewBox="0 0 47 34" enable-background="new 0 0 47 34" xml:space="preserve">
<g id="Capa_1">
	<path fill="#9A9FBF" d="M40,20c-3.866,0-37,0-37,0v2h2h25h10c2.757,0,5,2.243,5,5s-2.243,5-5,5c-1.889,0-3.596-1.046-4.456-2.729
		c-0.011-0.021-0.021-0.038-0.031-0.059l-1.743,0.979C34.93,32.452,37.283,34,40,34c3.866,0,7-3.134,7-7S43.866,20,40,20z"/>
	<path fill="#9A9FBF" d="M40,0c-2.717,0-5.07,1.548-6.23,3.809l1.743,0.979c0.011-0.021,0.021-0.038,0.031-0.059
		C36.404,3.046,38.111,2,40,2c2.757,0,5,2.243,5,5s-2.243,5-5,5H30H7v2c8.932,0,29.967,0,33,0c3.866,0,7-3.134,7-7S43.866,0,40,0z"
		/>
</g>
<g id="Capa_2">
	<g>
		<g>
			<path fill-rule="evenodd" clip-rule="evenodd" fill="#9A9FBF" d="M14,18h2v-2h-2V18z M18,16v2h19v-2H18z M0,18h12v-2H0V18z"/>
		</g>
	</g>
</g>
</svg>
