<?xml version="1.0" encoding="utf-8"?>
<!-- Generator: Adobe Illustrator 16.0.0, SVG Export Plug-In . SVG Version: 6.00 Build 0)  -->
<!DOCTYPE svg PUBLIC "-//W3C//DTD SVG 1.1//EN" "http://www.w3.org/Graphics/SVG/1.1/DTD/svg11.dtd">
<svg version="1.1" id="Capa_1" xmlns="http://www.w3.org/2000/svg" xmlns:xlink="http://www.w3.org/1999/xlink" x="0px" y="0px"
	 width="18px" height="14px" viewBox="0 0 18 14" enable-background="new 0 0 18 14" xml:space="preserve">
<g>
	<g>
		<path fill-rule="evenodd" clip-rule="evenodd" fill="#9A9FBF" d="M17,0c-0.553,0-1,0.447-1,1v1H5C4.447,2,4,2.447,4,3
			c0,0.552,0.447,1,1,1h12c0.552,0,1-0.448,1-1V1C18,0.447,17.552,0,17,0z M4,7c0-0.553-0.448-1-1-1H1C0.447,6,0,6.447,0,7
			c0,0.552,0.447,1,1,1h2C3.552,8,4,7.552,4,7z M6,6v2h2V6H6z M17,6h-6c-0.553,0-1,0.447-1,1c0,0.552,0.447,1,1,1h6
			c0.552,0,1-0.448,1-1C18,6.447,17.552,6,17,6z M17.969,10.764c-0.013-0.053-0.026-0.104-0.048-0.153C17.77,10.252,17.414,10,17,10
			c0,0,0,0-0.001,0H3c-0.553,0-1,0.447-1,1c0,0.552,0.447,1,1,1h13v1c0,0.552,0.447,1,1,1c0.552,0,1-0.448,1-1v-2
			c0-0.069-0.007-0.137-0.021-0.202C17.978,10.786,17.972,10.775,17.969,10.764z"/>
	</g>
</g>
</svg>
