<?xml version="1.0" encoding="utf-8"?>
<!-- Generator: Adobe Illustrator 16.0.0, SVG Export Plug-In . SVG Version: 6.00 Build 0)  -->
<!DOCTYPE svg PUBLIC "-//W3C//DTD SVG 1.1//EN" "http://www.w3.org/Graphics/SVG/1.1/DTD/svg11.dtd">
<svg version="1.1" xmlns="http://www.w3.org/2000/svg" xmlns:xlink="http://www.w3.org/1999/xlink" x="0px" y="0px" width="50px"
	 height="50px" viewBox="0 0 50 50" enable-background="new 0 0 50 50" xml:space="preserve">
<g id="Capa_1">
	<path fill-rule="evenodd" clip-rule="evenodd" fill="#00B7FF" d="M25,0c13.807,0,25,11.193,25,25c0,13.807-11.193,25-25,25
		c-13.807,0-25-11.193-25-25C0,11.193,11.193,0,25,0z"/>
</g>
<g id="Capa_3">
	<g>
		<g>
			<path fill="#FFFFFF" d="M23.002,17.002c-5.522,0-10,4.475-10,9.994c0,4.479,2.946,8.268,7.008,9.537v-2.117
				c-2.931-1.188-5-4.057-5-7.414c0-4.416,3.582-7.998,8-7.998s8,3.582,8,7.998c0,3.357-2.069,6.228-5,7.414v2.111
				c4.054-1.275,6.992-5.059,6.992-9.531C33.002,21.477,28.524,17.002,23.002,17.002z M22.01,37.004h2v-2.002h-2V37.004z
				 M23.358,15.002h6.651c0,0,1.121,0.313,1.638,0.523l1.797-1.348c-1.31-0.745-2.82-1.174-4.435-1.174
				C26.868,13.004,24.903,13.754,23.358,15.002z M37.358,18.654l-1.598,1.598c0.146,0.563,0.248,1.142,0.248,1.752
				c0,1.316-0.365,2.543-1,3.592V28.7c1.839-1.646,3-4.034,3-6.698C38.01,20.817,37.776,19.69,37.358,18.654z M36.01,16.004h-2v2h2
				V16.004z"/>
		</g>
	</g>
</g>
<g id="Capa_4">
	<g>
		<g>
			<polygon fill-rule="evenodd" clip-rule="evenodd" fill="#FFFFFF" points="27.021,26.021 24.021,26.021 24.021,23.021 
				22.021,23.021 22.021,26.021 19.021,26.021 19.021,28.021 22.021,28.021 22.021,31.021 24.021,31.021 24.021,28.021 
				27.021,28.021 			"/>
		</g>
	</g>
</g>
</svg>
