<?xml version="1.0" encoding="utf-8"?>
<!-- Generator: Adobe Illustrator 16.0.0, SVG Export Plug-In . SVG Version: 6.00 Build 0)  -->
<!DOCTYPE svg PUBLIC "-//W3C//DTD SVG 1.1//EN" "http://www.w3.org/Graphics/SVG/1.1/DTD/svg11.dtd">
<svg version="1.1" xmlns="http://www.w3.org/2000/svg" xmlns:xlink="http://www.w3.org/1999/xlink" x="0px" y="0px" width="50px"
	 height="50px" viewBox="0 0 50 50" enable-background="new 0 0 50 50" xml:space="preserve">
<g id="Capa_1">
	<path fill-rule="evenodd" clip-rule="evenodd" fill="#916BDF" d="M25,0c13.807,0,25,11.193,25,25c0,13.807-11.193,25-25,25
		c-13.807,0-25-11.193-25-25C0,11.193,11.193,0,25,0z"/>
</g>
<g id="Capa_3">
	<g>
		<g>
			<path fill="#FFFFFF" d="M28,20.005H14c-0.904,0-2,1.054-2,1.999v9.001c0,0.947,1.096,2,2,2v2.998l8-2.998v-2.002l-6,2.002v-2.002
				h-2v-9h14v11.001c0.904,0,2-1.053,2-2v-9.001C30,21.06,28.904,20.005,28,20.005z M24,33.006h2v-2h-2V33.006z M16,26.006h10v-2H16
				V26.006z M16,29.006h6v-2h-6V29.006z M22,17.006h16c0-0.947-1.096-2.001-2-2.001H22c-0.904,0-2,1.054-2,2.001v1.002h2V17.006z
				 M36,26.006h-1v-0.002h-2v2.002l-2-0.666v2.166l4,1.498v-2.998c0.511,0,1,0,1,0c0.904,0,2-1.053,2-2v-3h-2V26.006z M36,21.005h2
				v-2h-2V21.005z"/>
		</g>
	</g>
</g>
</svg>
