<?xml version="1.0" encoding="utf-8"?>
<!-- Generator: Adobe Illustrator 16.0.0, SVG Export Plug-In . SVG Version: 6.00 Build 0)  -->
<!DOCTYPE svg PUBLIC "-//W3C//DTD SVG 1.1//EN" "http://www.w3.org/Graphics/SVG/1.1/DTD/svg11.dtd">
<svg version="1.1" xmlns="http://www.w3.org/2000/svg" xmlns:xlink="http://www.w3.org/1999/xlink" x="0px" y="0px" width="54px"
	 height="45px" viewBox="0 0 54 45" enable-background="new 0 0 54 45" xml:space="preserve">
<g id="Capa_2">
	<rect x="21.011" fill="#9A9FBF" width="4" height="4"/>
	<g>
		<path fill="#9A9FBF" d="M15,31.002h-3.055C7.564,31.002,4,27.889,4,24.063c0-2.528,1.589-4.859,4.148-6.083l2.109-1.009
			l0.156-2.333c0.268-4.01,2.879-7.429,6.598-9.244V1.055C11.097,3.177,6.828,8.293,6.422,14.371C2.607,16.196,0,19.847,0,24.063
			c0,6.042,5.347,10.939,11.945,10.939H15V31.002z"/>
		<path fill="#9A9FBF" d="M47.783,16.772c0-5.922-5.14-10.73-11.555-10.92c-1.864-2.167-4.355-3.854-7.218-4.851v4.312
			c1.603,0.756,3.036,1.812,4.186,3.148l1.151,1.337l1.763,0.052c4.303,0.128,7.673,3.167,7.673,6.922v2.755l2.573,0.982
			c2.308,0.88,3.798,2.848,3.798,5.013c0,4.529-3.455,5.479-6.354,5.479h-1.955h-1.835v4h1.835h1.955
			c5.718,0,10.199-3.031,10.199-9.438C54,21.62,51.523,18.2,47.783,16.772z"/>
	</g>
</g>
<g id="Capa_3">
	<g>
		<g>
			<path fill-rule="evenodd" clip-rule="evenodd" fill="#9A9FBF" d="M29.321,25.277c-0.552,0.956-0.225,2.18,0.731,2.731
				c0.957,0.553,2.181,0.225,2.732-0.731c0.553-0.957,1.268-6.196,1.268-6.196S29.873,24.32,29.321,25.277z M19.125,30.205
				c-0.552,0.957-0.224,2.18,0.732,2.732c0.957,0.552,2.18,0.225,2.732-0.732c0.552-0.956,1.268-6.196,1.268-6.196
				S19.678,29.249,19.125,30.205z M24.286,38.804c-0.553,0.956-0.225,2.18,0.732,2.731c0.957,0.553,2.18,0.225,2.732-0.732
				c0.552-0.956,1.268-6.195,1.268-6.195S24.838,37.847,24.286,38.804z M33.285,35.803c-0.552,0.957-0.225,2.181,0.732,2.732
				c0.957,0.553,2.18,0.225,2.732-0.732c0.552-0.956,1.268-6.195,1.268-6.195S33.838,34.847,33.285,35.803z M14.089,41.999
				c-0.552,0.957-0.225,2.18,0.732,2.732s2.18,0.225,2.732-0.732c0.552-0.956,1.268-6.196,1.268-6.196S14.642,41.043,14.089,41.999z
				"/>
		</g>
	</g>
</g>
</svg>
