<?xml version="1.0" encoding="utf-8"?>
<!-- Generator: Adobe Illustrator 16.0.0, SVG Export Plug-In . SVG Version: 6.00 Build 0)  -->
<!DOCTYPE svg PUBLIC "-//W3C//DTD SVG 1.1//EN" "http://www.w3.org/Graphics/SVG/1.1/DTD/svg11.dtd">
<svg version="1.1" xmlns="http://www.w3.org/2000/svg" xmlns:xlink="http://www.w3.org/1999/xlink" x="0px" y="0px" width="59px"
	 height="40px" viewBox="0 0 59 40" enable-background="new 0 0 59 40" xml:space="preserve">
<g id="Capa_1">
	<path fill="#9A9FBF" d="M52,26c-3.866,0-48,0-48,0v4h4h36h8c1.654,0,3,1.346,3,3s-1.346,3-3,3c-1.133,0-2.158-0.628-2.676-1.641
		c-0.001-0.002-0.002-0.004-0.003-0.006l-3.52,1.891C46.971,38.476,49.306,40,52,40c3.866,0,7-3.134,7-7S55.866,26,52,26z"/>
	<path fill="#9A9FBF" d="M52,0c-2.694,0-5.029,1.524-6.198,3.756l3.52,1.891c0.001-0.002,0.002-0.004,0.003-0.006
		C49.842,4.628,50.867,4,52,4c1.654,0,3,1.346,3,3s-1.346,3-3,3h-8H8v4c10.955,0,40.849,0,44,0c3.866,0,7-3.134,7-7S55.866,0,52,0z"
		/>
</g>
<g id="Capa_2">
	<g>
		<g>
			<path fill-rule="evenodd" clip-rule="evenodd" fill="#9A9FBF" d="M0,22h8v-4H0V22z M12,22h4v-4h-4V22z M20,18v4h34v-4H20z"/>
		</g>
	</g>
</g>
</svg>
