<?xml version="1.0" encoding="utf-8"?>
<!-- Generator: Adobe Illustrator 16.0.0, SVG Export Plug-In . SVG Version: 6.00 Build 0)  -->
<!DOCTYPE svg PUBLIC "-//W3C//DTD SVG 1.1//EN" "http://www.w3.org/Graphics/SVG/1.1/DTD/svg11.dtd">
<svg version="1.1" id="Capa_1" xmlns="http://www.w3.org/2000/svg" xmlns:xlink="http://www.w3.org/1999/xlink" x="0px" y="0px"
	 width="22px" height="14px" viewBox="0 0 22 14" enable-background="new 0 0 22 14" xml:space="preserve">
<rect x="12" y="12" fill="#9A9FBF" width="2" height="2"/>
<path fill="#9A9FBF" d="M19.412,6.708c0-2.368-2.088-4.292-4.694-4.367C13.474,0.917,11.549,0,9.382,0
	C5.771,0,2.826,2.542,2.609,5.748C1.059,6.479,0,7.938,0,9.624C0,12.041,2.172,14,4.853,14h2.084H10v-2H6.938H4.853
	C3.28,12,2,10.935,2,9.624c0-0.85,0.56-1.642,1.461-2.066l1.063-0.502l0.08-1.173C4.752,3.706,6.851,2,9.382,2
	c1.514,0,2.909,0.604,3.83,1.657l0.575,0.658L14.66,4.34c1.518,0.044,2.752,1.106,2.752,2.368v1.385l1.296,0.487
	C19.493,8.875,20,9.514,20,10.208C20,10.651,20,12,17.794,12H17h-0.999v2H17h0.794C20.117,14,22,12.771,22,10.208
	C22,8.631,20.932,7.279,19.412,6.708z"/>
</svg>
