<?xml version="1.0" encoding="utf-8"?>
<!-- Generator: Adobe Illustrator 16.0.0, SVG Export Plug-In . SVG Version: 6.00 Build 0)  -->
<!DOCTYPE svg PUBLIC "-//W3C//DTD SVG 1.1//EN" "http://www.w3.org/Graphics/SVG/1.1/DTD/svg11.dtd">
<svg version="1.1" xmlns="http://www.w3.org/2000/svg" xmlns:xlink="http://www.w3.org/1999/xlink" x="0px" y="0px" width="26px"
	 height="22px" viewBox="0 0 26 22" enable-background="new 0 0 26 22" xml:space="preserve">
<g id="Capa_1">
	<rect x="12" y="20" fill="#9A9FBF" width="2" height="2"/>
	<path fill="#9A9FBF" d="M19.412,14.708c0-2.368-2.088-4.292-4.694-4.367C13.474,8.917,11.549,8,9.382,8
		c-3.611,0-6.556,2.542-6.773,5.748C1.059,14.479,0,15.938,0,17.624C0,20.041,2.172,22,4.853,22h2.084H10v-2H6.938H4.853
		C3.28,20,2,18.935,2,17.624c0-0.85,0.56-1.642,1.461-2.066l1.063-0.502l0.08-1.173C4.752,11.706,6.851,10,9.382,10
		c1.514,0,2.909,0.604,3.83,1.657l0.575,0.658l0.874,0.025c1.518,0.044,2.752,1.106,2.752,2.368v1.385l1.296,0.487
		C19.493,16.875,20,17.514,20,18.208C20,18.651,20,20,17.794,20H17h-0.999v2H17h0.794C20.117,22,22,20.771,22,18.208
		C22,16.631,20.932,15.279,19.412,14.708z"/>
</g>
<g id="Capa_2">
	<g>
		<g>
			<path fill-rule="evenodd" clip-rule="evenodd" fill="#9A9FBF" d="M15,5c-2.761,0-5.062,1.875-5.761,4.413L11,10l0.123,0.062
				C11.546,8.307,13.116,7,15,7c2.209,0,4,1.791,4,3.999c0,1.161-0.502,2.196-1.289,2.927c0.359,0.47,0.803,1.051,1.207,1.584
				C20.184,14.409,21,12.808,21,10.999C21,7.687,18.313,5,15,5z M9.414,4L8,2.586c-0.391-0.391-1.024-0.391-1.415,0
				c-0.39,0.39-0.39,1.023,0,1.414L8,5.414c0.391,0.391,1.023,0.391,1.414,0S9.805,4.391,9.414,4z M15,4c0.553,0,1-0.447,1-1V1
				c0-0.553-0.447-1-1-1s-1,0.447-1,1v2C14,3.553,14.447,4,15,4z M25,9h-2c-0.553,0-1,0.448-1,1c0,0.553,0.447,0.999,1,0.999h2
				c0.553,0,1-0.446,1-0.999C26,9.448,25.553,9,25,9z"/>
		</g>
	</g>
</g>
<g id="Capa_3">
	<path fill-rule="evenodd" clip-rule="evenodd" fill="#9A9FBF" d="M22.878,2.216c0.392,0.391,0.39,1.022-0.001,1.414l-1.414,1.414
		c-0.391,0.391-1.022,0.392-1.414,0.001c-0.391-0.392-0.391-1.024,0-1.416l1.414-1.414C21.854,1.824,22.486,1.825,22.878,2.216z"/>
</g>
</svg>
