<?xml version="1.0" encoding="utf-8"?>
<!-- Generator: Adobe Illustrator 16.0.0, SVG Export Plug-In . SVG Version: 6.00 Build 0)  -->
<!DOCTYPE svg PUBLIC "-//W3C//DTD SVG 1.1//EN" "http://www.w3.org/Graphics/SVG/1.1/DTD/svg11.dtd">
<svg version="1.1" xmlns="http://www.w3.org/2000/svg" xmlns:xlink="http://www.w3.org/1999/xlink" x="0px" y="0px" width="22px"
	 height="17px" viewBox="0 0 22 17" enable-background="new 0 0 22 17" xml:space="preserve">
<g id="Capa_1">
	<rect x="8" fill="#9A9FBF" width="2" height="2"/>
	<g>
		<path fill="#9A9FBF" d="M2,9.624c0-0.85,0.56-1.642,1.461-2.066l1.063-0.502l0.08-1.173C4.675,4.84,5.201,3.913,6,3.222V0.821
			C4.081,1.82,2.752,3.638,2.609,5.748C1.059,6.479,0,7.938,0,9.624C0,12.041,2.172,14,4.853,14h1.167v-2H4.853
			C3.28,12,2,10.935,2,9.624z"/>
		<path fill="#9A9FBF" d="M19.412,6.708c0-2.368-2.088-4.292-4.694-4.367C14.008,1.528,13.071,0.89,12,0.483v2.222
			c0.451,0.259,0.872,0.563,1.212,0.951l0.575,0.658L14.66,4.34c1.518,0.044,2.752,1.106,2.752,2.368v1.385l1.296,0.487
			C19.493,8.875,20,9.514,20,10.208C20,10.651,20,12,17.794,12H17h-0.999v2H17h0.794C20.117,14,22,12.771,22,10.208
			C22,8.631,20.932,7.279,19.412,6.708z"/>
	</g>
</g>
<g id="Capa_2">
	<g>
		<g>
			<path fill-rule="evenodd" clip-rule="evenodd" fill="#9A9FBF" d="M14,13h-1.793l1.268-1.268c0.195-0.195,0.195-0.514,0-0.709
				c-0.195-0.193-0.512-0.193-0.707,0L11.5,12.292V10.5c0-0.277-0.224-0.5-0.5-0.5s-0.5,0.223-0.5,0.5v1.792l-1.268-1.269
				c-0.195-0.193-0.512-0.193-0.707,0c-0.195,0.195-0.195,0.514,0,0.709L9.793,13H8c-0.276,0-0.5,0.223-0.5,0.5
				C7.5,13.775,7.724,14,8,14h1.792l-1.267,1.268c-0.195,0.195-0.195,0.512,0,0.707s0.512,0.195,0.707,0l1.268-1.268V16.5
				c0,0.275,0.224,0.5,0.5,0.5s0.5-0.225,0.5-0.5v-1.793l1.268,1.268c0.195,0.195,0.512,0.195,0.707,0s0.195-0.512,0-0.707
				L12.207,14H14c0.276,0,0.5-0.225,0.5-0.5C14.5,13.223,14.276,13,14,13z"/>
		</g>
	</g>
</g>
</svg>
