<?xml version="1.0" encoding="utf-8"?>
<!-- Generator: Adobe Illustrator 16.0.0, SVG Export Plug-In . SVG Version: 6.00 Build 0)  -->
<!DOCTYPE svg PUBLIC "-//W3C//DTD SVG 1.1//EN" "http://www.w3.org/Graphics/SVG/1.1/DTD/svg11.dtd">
<svg version="1.1" id="Capa_1" xmlns="http://www.w3.org/2000/svg" xmlns:xlink="http://www.w3.org/1999/xlink" x="0px" y="0px"
	 width="22px" height="22px" viewBox="0 0 22 22" enable-background="new 0 0 22 22" xml:space="preserve">
<g>
	<g>
		<path fill-rule="evenodd" clip-rule="evenodd" fill="#9A9FBF" d="M11,5C8.785,5,6.872,6.214,5.832,8h2.547
			C9.083,7.385,9.992,7,11,7c2.209,0,4,1.791,4,4s-1.791,4-4,4c-1.008,0-1.917-0.386-2.621-1H5.832c1.04,1.785,2.953,3,5.168,3
			c3.313,0,6-2.687,6-6C17,7.686,14.313,5,11,5z M7.001,12v-2H5v2H7.001z M21,10h-2c-0.552,0-0.999,0.447-0.999,1
			c0,0.552,0.447,1,0.999,1h2c0.553,0,1-0.448,1-1C22,10.447,21.553,10,21,10z M2.25,10h-1.5C0.336,10,0,10.447,0,11
			c0,0.552,0.336,1,0.75,1h1.5C2.665,12,3,11.552,3,11C3,10.447,2.665,10,2.25,10z M11.001,18c-0.553,0-1,0.447-1,1v2
			c0,0.552,0.447,1,1,1c0.552,0,1-0.448,1-1v-2C12.001,18.447,11.553,18,11.001,18z M11.001,4c0.552,0,1-0.448,1-1V1
			c0-0.553-0.448-1-1-1c-0.553,0-1,0.447-1,1v2C10.001,3.552,10.448,4,11.001,4z M17.364,15.95c-0.391-0.391-1.023-0.391-1.414,0
			c-0.39,0.391-0.391,1.023,0,1.414l1.414,1.414c0.391,0.391,1.024,0.391,1.415,0c0.39-0.391,0.39-1.023-0.001-1.414L17.364,15.95z
			 M4.636,6.05C5.027,6.441,5.66,6.44,6.051,6.051c0.391-0.391,0.391-1.024,0-1.415L4.637,3.222c-0.391-0.391-1.023-0.391-1.414,0
			c-0.391,0.392-0.391,1.024,0,1.415L4.636,6.05z M4.637,15.95l-1.414,1.414c-0.391,0.391-0.391,1.023,0,1.414
			c0.39,0.391,1.023,0.391,1.414,0l1.414-1.414c0.391-0.391,0.391-1.023,0-1.414S5.027,15.56,4.637,15.95z M17.365,6.051
			l1.414-1.414c0.391-0.391,0.39-1.024,0-1.415c-0.391-0.391-1.023-0.39-1.414,0.001l-1.414,1.414
			C15.561,5.027,15.56,5.66,15.95,6.051C16.341,6.44,16.975,6.441,17.365,6.051z"/>
	</g>
</g>
</svg>
