<?xml version="1.0" encoding="utf-8"?>
<!-- Generator: Adobe Illustrator 16.0.0, SVG Export Plug-In . SVG Version: 6.00 Build 0)  -->
<!DOCTYPE svg PUBLIC "-//W3C//DTD SVG 1.1//EN" "http://www.w3.org/Graphics/SVG/1.1/DTD/svg11.dtd">
<svg version="1.1" id="Capa_1" xmlns="http://www.w3.org/2000/svg" xmlns:xlink="http://www.w3.org/1999/xlink" x="0px" y="0px"
	 width="16px" height="4px" viewBox="0 0 16 4" enable-background="new 0 0 16 4" xml:space="preserve">
<g>
	<g>
		<path fill-rule="evenodd" clip-rule="evenodd" fill="#9A9FBF" d="M14-0.001c-1.105,0-2,0.895-2,2c0,1.104,0.895,1.999,2,1.999
			s2-0.895,2-1.999C16,0.894,15.105-0.001,14-0.001z M8-0.001c-1.105,0-2,0.895-2,2c0,1.104,0.895,1.999,2,1.999
			c1.105,0,2-0.895,2-1.999C10,0.894,9.105-0.001,8-0.001z M2-0.001C0.896-0.001,0,0.894,0,1.999C0,3.104,0.896,3.998,2,3.998
			s2-0.895,2-1.999C4,0.894,3.105-0.001,2-0.001z"/>
	</g>
</g>
</svg>
