<?xml version="1.0" encoding="utf-8"?>
<!-- Generator: Adobe Illustrator 16.0.0, SVG Export Plug-In . SVG Version: 6.00 Build 0)  -->
<!DOCTYPE svg PUBLIC "-//W3C//DTD SVG 1.1//EN" "http://www.w3.org/Graphics/SVG/1.1/DTD/svg11.dtd">
<svg version="1.1" xmlns="http://www.w3.org/2000/svg" xmlns:xlink="http://www.w3.org/1999/xlink" x="0px" y="0px" width="50px"
	 height="50px" viewBox="0 0 50 50" enable-background="new 0 0 50 50" xml:space="preserve">
<g id="Capa_1">
	<path fill-rule="evenodd" clip-rule="evenodd" fill="#9A9FBF" d="M25,0c13.807,0,25,11.193,25,25c0,13.807-11.193,25-25,25
		c-13.807,0-25-11.193-25-25C0,11.193,11.193,0,25,0z"/>
</g>
<g id="Capa_2">
	<g>
		<g>
			<path fill="#FFFFFF" d="M25,15c-5.523,0-10,4.475-10,9.993c0,4.479,2.947,8.267,7.008,9.539v-2.119c-2.931-1.187-5-4.056-5-7.412
				c0-4.419,3.582-8.001,8-8.001s8,3.582,8,8.001c0,3.356-2.07,6.226-5,7.412v2.11C32.061,33.249,35,29.465,35,24.993
				C35,19.475,30.521,15,25,15z M22.007,23h-2v2.001h2V23z M28.008,23v2.001h2V23H28.008z M21.999,27.104
				c0,1.047,1.341,1.895,2.996,1.895s2.996-0.848,2.996-1.895v-0.101h-5.992V27.104z M24.008,35.001h2v-2h-2V35.001z"/>
		</g>
	</g>
	<path fill-rule="evenodd" clip-rule="evenodd" fill="#FFFFFF" d="M37.012,15.011h-2h-2v-2h2h2h2v2H37.012z"/>
</g>
</svg>
