<?xml version="1.0" encoding="utf-8"?>
<!-- Generator: Adobe Illustrator 16.0.0, SVG Export Plug-In . SVG Version: 6.00 Build 0)  -->
<!DOCTYPE svg PUBLIC "-//W3C//DTD SVG 1.1//EN" "http://www.w3.org/Graphics/SVG/1.1/DTD/svg11.dtd">
<svg version="1.1" id="Capa_1" xmlns="http://www.w3.org/2000/svg" xmlns:xlink="http://www.w3.org/1999/xlink" x="0px" y="0px"
	 width="16px" height="16px" viewBox="0 0 16 16" enable-background="new 0 0 16 16" xml:space="preserve">
<g>
	<g>
		<path fill-rule="evenodd" clip-rule="evenodd" fill="#9A9FBF" d="M10,0v2h2.5L8.987,5.512l1.501,1.5L14,3.5V6h2V0H10z M2,4H0v2h2
			V4z M6,2V0H0v2h2v1.5l3.512,3.512l1.501-1.5L3.5,2H6z M14,12h2v-2h-2V12z M14,12.5l-3.512-3.513l-1.501,1.5L12.5,14H10v2h6v-2h-2
			V12.5z M5.512,8.987L2,12.5V10H0v6h6v-2H3.5l3.513-3.513L5.512,8.987z"/>
	</g>
</g>
</svg>
