<svg xmlns="http://www.w3.org/2000/svg" width="24" height="24" fill="#9a9fbf"><path d="M7.504 11c-.57 0-1.084.198-1.504.52V11a5.99 5.99 0 0 1 .205-1.53L4.477 8.302C4.174 9.146 4 10.052 4 11v1.563c-1.2.7-2 1.96-2 3.437 0 2.027 1.515 3.676 3.47 3.938.452.64 1.2 1.062 2.034 1.062A2.5 2.5 0 0 0 10 18.502v-5a2.5 2.5 0 0 0-2.496-2.5zm-3.496 4.983c0-.732-.008-1.36.992-1.705v3.408c-1-.34-.992-.97-.992-1.703zM8 18.502a.5.5 0 1 1-1 0v-5a.5.5 0 1 1 1 0v5zM22 16c0-1.477-.8-2.748-2-3.438V11a8 8 0 0 0-8-8 7.97 7.97 0 0 0-2.7.477l1.164 1.73A5.99 5.99 0 0 1 12 5a6.01 6.01 0 0 1 6 6v.52a2.46 2.46 0 0 0-1.504-.52A2.5 2.5 0 0 0 14 13.5v5a2.5 2.5 0 0 0 2.496 2.5c.842 0 1.582-.422 2.035-1.063 1.955-.26 3.47-1.9 3.47-3.937zm-5 2.502a.5.5 0 1 1-1 0v-5a.5.5 0 1 1 1 0v5zm2-.814V14.28c1 .343.994.973.994 1.705S20 17.348 19 17.688zM6.02 4.98h2v2h-2z"/></svg>