<?xml version="1.0" encoding="utf-8"?>
<!-- Generator: Adobe Illustrator 16.0.0, SVG Export Plug-In . SVG Version: 6.00 Build 0)  -->
<!DOCTYPE svg PUBLIC "-//W3C//DTD SVG 1.1//EN" "http://www.w3.org/Graphics/SVG/1.1/DTD/svg11.dtd">
<svg version="1.1" id="Admin_Shield_Icon" xmlns="http://www.w3.org/2000/svg" xmlns:xlink="http://www.w3.org/1999/xlink" x="0px"
	 y="0px" width="20px" height="20px" viewBox="0 0 20 20" enable-background="new 0 0 20 20" xml:space="preserve">
<g>
	<path fill="#fff" d="M4.625,0.02c0.027,0,0.068-0.001,0.114-0.004h-0.15C4.589,0.019,4.603,0.02,4.625,0.02z"/>
	<path fill="#fff" d="M5.055,0C4.989,0,4.849,0.01,4.739,0.016h0.352c0-0.004,0-0.008,0-0.012C5.091,0.001,5.077,0,5.055,0z"/>
	<path fill="#fff" d="M15.909,0H13v2h1.206c0.592,2,1.995,3.484,3.574,4.32c-0.756,4.318-3.56,9.236-7.769,11.463
		c-4.364-2.32-7.098-7.616-7.786-11.452C3.826,5.502,5.223,4,5.804,2H7V0H4.091C4.085,3,2.009,4.69-0.004,4.994
		C0.619,9.974,4,17.321,10,19.998V20c0,0,0.01,0,0.01,0c0.001,0-0.01,0-0.01,0v-0.002c6-2.677,9.371-10.024,9.994-15.004
		C17.982,4.69,15.915,3,15.909,0z"/>
	<path fill="#fff" d="M14.946,0c-0.022,0-0.037,0.001-0.037,0.004c0,0.004,0,0.008,0,0.012h0.366C15.161,0.01,15.015,0,14.946,0z
		"/>
	<path fill="#fff" d="M15.431,0.016h-0.155c0.047,0.002,0.089,0.004,0.118,0.004C15.416,0.02,15.431,0.019,15.431,0.016z"/>
</g>
<rect x="9" fill="#fff" width="2" height="2"/>
<rect x="6" y="6" fill="#fff" width="8" height="2"/>
<rect x="8" y="10" fill="#fff" width="4" height="2"/>
</svg>
