<?xml version="1.0" encoding="utf-8"?>
<!-- Generator: Adobe Illustrator 16.0.0, SVG Export Plug-In . SVG Version: 6.00 Build 0)  -->
<!DOCTYPE svg PUBLIC "-//W3C//DTD SVG 1.1//EN" "http://www.w3.org/Graphics/SVG/1.1/DTD/svg11.dtd">
<svg version="1.1" id="Active_Members_Icon" xmlns="http://www.w3.org/2000/svg" xmlns:xlink="http://www.w3.org/1999/xlink"
	 x="0px" y="0px" width="20px" height="20px" viewBox="0 0 20 20" enable-background="new 0 0 20 20" xml:space="preserve">
<path fill="#9A9FBF" d="M15,2c1.654,0,3,1.346,3,3s-1.346,3-3,3s-3-1.346-3-3S13.346,2,15,2 M15,0c-2.761,0-5,2.239-5,5
	c0,2.762,2.239,5,5,5c2.762,0,5-2.238,5-5C20,2.239,17.762,0,15,0L15,0z"/>
<rect x="14" y="18" fill="#9A9FBF" width="2" height="2"/>
<g>
	<path fill="#9A9FBF" d="M8,16c0-1.104,0.897-2,2-2h10v-2H10c-2.209,0-4,1.791-4,4v4h6v-2H8V16z"/>
	<rect x="18" y="18" fill="#9A9FBF" width="2" height="2"/>
</g>
<rect y="2" fill="#9A9FBF" width="8" height="2"/>
<rect y="6" fill="#9A9FBF" width="6" height="2"/>
<rect y="10" fill="#9A9FBF" width="4" height="2"/>
<rect y="14" fill="#9A9FBF" width="2" height="2"/>
</svg>
