<?xml version="1.0" encoding="utf-8"?>
<!-- Generator: Adobe Illustrator 16.0.0, SVG Export Plug-In . SVG Version: 6.00 Build 0)  -->
<!DOCTYPE svg PUBLIC "-//W3C//DTD SVG 1.1//EN" "http://www.w3.org/Graphics/SVG/1.1/DTD/svg11.dtd">
<svg version="1.1" id="Blog_Main_Icon" xmlns="http://www.w3.org/2000/svg" xmlns:xlink="http://www.w3.org/1999/xlink" x="0px"
	 y="0px" width="20px" height="20px" viewBox="0 0 20 20" enable-background="new 0 0 20 20" xml:space="preserve">
<path fill-rule="evenodd" clip-rule="evenodd" fill="#9A9FBF" d="M12.997,15.999V10h2.001v5.999H12.997z M8.997,15.999V10h2.001
	v5.999H8.997z M5,15.991v-6h2v6H5z M6,2.999v1.999H4V2.999H6z M9,2.999v1.999H7V2.999H9z M12,2.999v1.999h-2V2.999H12z M17,7.998H3
	v-2h14V7.998z M15,19.997H3H1v-3v-3.001V1.999c0-1.105,0.896-2,2-2h14c1.104,0,2,0.895,2,2v6h-2v-6H3v11.998v4.001h10l4,0.002
	v-4.003h2v2.001v4.002L15,19.997z M17,9.998h2v2h-2V9.998z"/>
</svg>
