<?xml version="1.0" encoding="utf-8"?>
<!-- Generator: Adobe Illustrator 16.0.0, SVG Export Plug-In . SVG Version: 6.00 Build 0)  -->
<!DOCTYPE svg PUBLIC "-//W3C//DTD SVG 1.1//EN" "http://www.w3.org/Graphics/SVG/1.1/DTD/svg11.dtd">
<svg version="1.1" id="Friendships_Requests_Icon" xmlns="http://www.w3.org/2000/svg" xmlns:xlink="http://www.w3.org/1999/xlink"
	 x="0px" y="0px" width="20px" height="20px" viewBox="0 0 20 20" enable-background="new 0 0 20 20" xml:space="preserve">
<g>
	<g>
		<path fill-rule="evenodd" clip-rule="evenodd" fill="#9A9FBF" d="M15.008,1.352V3.76c1.828,1.466,3,3.714,3,6.239
			c0,3.356-2.068,6.225-5,7.413v2.111C17.061,18.248,20,14.465,20,9.992C20,6.299,17.99,3.082,15.008,1.352z M2.008,10
			c0-2.525,1.173-4.773,3-6.24V1.341C2.018,3.069,0,6.292,0,9.992c0,4.479,2.947,8.268,7.008,9.539v-2.119
			C4.078,16.225,2.008,13.355,2.008,10z M5.008,9.999h2V8h-2V9.999z M13.008,9.999h2V8h-2V9.999z M6.999,12.102
			c0,1.047,1.341,1.895,2.996,1.895c1.654,0,2.996-0.848,2.996-1.895v-0.1H6.999V12.102z M9.008,6h2V4h2V2h-2V0h-2v2h-2v2h2V6z"/>
	</g>
</g>
<rect x="9" y="18" fill-rule="evenodd" clip-rule="evenodd" fill="#9A9FBF" width="2" height="2"/>
</svg>
