<?xml version="1.0" encoding="utf-8"?>
<!-- Generator: Adobe Illustrator 16.0.0, SVG Export Plug-In . SVG Version: 6.00 Build 0)  -->
<!DOCTYPE svg PUBLIC "-//W3C//DTD SVG 1.1//EN" "http://www.w3.org/Graphics/SVG/1.1/DTD/svg11.dtd">
<svg version="1.1" id="Groups_Icon" xmlns="http://www.w3.org/2000/svg" xmlns:xlink="http://www.w3.org/1999/xlink" x="0px"
	 y="0px" width="20px" height="20px" viewBox="0 0 20 20" enable-background="new 0 0 20 20" xml:space="preserve">
<path fill="#9A9FBF" d="M7,2c1.654,0,3,1.346,3,3S8.654,8,7,8S4,6.654,4,5S5.346,2,7,2 M7,0C4.239,0,2,2.239,2,5
	c0,2.762,2.239,5,5,5c2.762,0,5-2.238,5-5C12,2.239,9.762,0,7,0L7,0z"/>
<rect x="6" y="18" fill="#9A9FBF" width="2" height="2"/>
<path fill="#9A9FBF" d="M10,12H4c-2.209,0-4,1.791-4,4v4h4v-2H2v-2c0-1.104,0.897-2,2-2h6c1.103,0,2,0.896,2,2v2h-2v2h4v-4
	C14,13.791,12.209,12,10,12z"/>
<path fill="#9A9FBF" d="M14,0.101v2.083C15.161,2.599,16,3.698,16,5s-0.839,2.401-2,2.816v2.083c2.282-0.463,4-2.48,4-4.899
	S16.282,0.564,14,0.101z"/>
<path fill="#9A9FBF" d="M16,12v2c1.103,0,2,0.896,2,2v2h-2v2h4v-4C20,13.791,18.209,12,16,12z"/>
</svg>
