<?xml version="1.0" encoding="utf-8"?>
<!-- Generator: Adobe Illustrator 16.0.0, SVG Export Plug-In . SVG Version: 6.00 Build 0)  -->
<!DOCTYPE svg PUBLIC "-//W3C//DTD SVG 1.1//EN" "http://www.w3.org/Graphics/SVG/1.1/DTD/svg11.dtd">
<svg version="1.1" id="Headphones_Icon" xmlns="http://www.w3.org/2000/svg" xmlns:xlink="http://www.w3.org/1999/xlink" x="0px"
	 y="0px" width="20px" height="20px" viewBox="0 0 20 20" enable-background="new 0 0 20 20" xml:space="preserve">
<g>
	<path fill="#9A9FBF" d="M5.504,9.001C4.935,9.001,4.42,9.199,4,9.52V9c0-0.53,0.076-1.041,0.205-1.53L2.477,6.302
		C2.174,7.146,2,8.052,2,9v1.562C0.81,11.253,0,12.523,0,14c0,2.027,1.515,3.676,3.469,3.938C3.922,18.578,4.661,19,5.504,19
		C6.883,19,8,17.879,8,16.502v-5.001C8,10.123,6.883,9.001,5.504,9.001z M2.008,13.984C2.008,13.252,2,12.623,3,12.28v3.407
		C2,15.346,2.008,14.717,2.008,13.984z M6,16.502C6,16.777,5.776,17,5.5,17C5.224,17,5,16.777,5,16.502v-5.001
		c0-0.276,0.224-0.5,0.5-0.5c0.276,0,0.5,0.224,0.5,0.5V16.502z"/>
	<path fill="#9A9FBF" d="M20,14c0-1.477-0.81-2.748-2-3.438V9c0-4.418-3.582-8-8-8C9.051,1,8.145,1.174,7.3,1.477l1.164,1.729
		C8.956,3.076,9.468,3,10,3c3.309,0,6,2.691,6,6v0.521c-0.421-0.322-0.936-0.521-1.504-0.521c-1.381,0-2.496,1.122-2.496,2.5v5.001
		C12,17.879,13.115,19,14.496,19c0.842,0,1.582-0.422,2.035-1.062C18.486,17.677,20,16.028,20,14z M15,16.502
		C15,16.777,14.776,17,14.5,17S14,16.777,14,16.502v-5.001c0-0.276,0.224-0.5,0.5-0.5s0.5,0.224,0.5,0.5V16.502z M17,15.688v-3.409
		c1,0.342,0.994,0.972,0.994,1.705S18,15.348,17,15.688z"/>
	<rect x="4.021" y="2.979" fill="#9A9FBF" width="2" height="2"/>
</g>
</svg>
