<?xml version="1.0" encoding="utf-8"?>
<!-- Generator: Adobe Illustrator 16.0.0, SVG Export Plug-In . SVG Version: 6.00 Build 0)  -->
<!DOCTYPE svg PUBLIC "-//W3C//DTD SVG 1.1//EN" "http://www.w3.org/Graphics/SVG/1.1/DTD/svg11.dtd">
<svg version="1.1" id="Join_The_Group_Icon" xmlns="http://www.w3.org/2000/svg" xmlns:xlink="http://www.w3.org/1999/xlink"
	 x="0px" y="0px" width="24px" height="24px" viewBox="0 0 24 24" enable-background="new 0 0 24 24" xml:space="preserve">
<path fill="#9A9FBF" d="M7,6c1.654,0,3,1.346,3,3s-1.346,3-3,3s-3-1.346-3-3S5.346,6,7,6 M7,4C4.239,4,2,6.239,2,9
	c0,2.762,2.239,5,5,5c2.762,0,5-2.238,5-5C12,6.239,9.762,4,7,4L7,4z"/>
<rect x="6" y="22" fill="#9A9FBF" width="2" height="2"/>
<path fill="#9A9FBF" d="M10,16H4c-2.209,0-4,1.791-4,4v4h4v-2H2v-2c0-1.104,0.897-2,2-2h6c1.104,0,2,0.896,2,2v2h-2v2h4v-4
	C14,17.791,12.209,16,10,16z"/>
<path fill="#9A9FBF" d="M14,4.101v2.083C15.161,6.599,16,7.698,16,9s-0.839,2.401-2,2.816v2.083c2.282-0.463,4-2.479,4-4.898
	S16.282,4.564,14,4.101z"/>
<path fill="#9A9FBF" d="M16,16v2c1.104,0,2,0.896,2,2v2h-2v2h4v-4C20,17.791,18.209,16,16,16z"/>
<polygon fill="#9A9FBF" points="24,2 22,2 22,0 20,0 20,2 18,2 18,4 20,4 20,6 22,6 22,4 24,4 "/>
</svg>
