<?xml version="1.0" encoding="utf-8"?>
<!-- Generator: Adobe Illustrator 16.0.0, SVG Export Plug-In . SVG Version: 6.00 Build 0)  -->
<!DOCTYPE svg PUBLIC "-//W3C//DTD SVG 1.1//EN" "http://www.w3.org/Graphics/SVG/1.1/DTD/svg11.dtd">
<svg version="1.1" id="Link_Icon" xmlns="http://www.w3.org/2000/svg" xmlns:xlink="http://www.w3.org/1999/xlink" x="0px" y="0px"
	 width="20px" height="20px" viewBox="0 0 20 20" enable-background="new 0 0 20 20" xml:space="preserve">
<path fill-rule="evenodd" clip-rule="evenodd" fill="#9A9FBF" d="M19.401,7.831l-7.231,7.23l0,0l-4.339,4.338
	c-0.799,0.8-2.094,0.8-2.893,0l-4.338-4.338c-0.799-0.799-0.799-2.094,0-2.893l1.446-1.446l1.446,1.446l1.446-1.446L3.491,9.277
	l2.17-2.169l0,0l1.446-1.446l0,0l-0.24,0.24l0.963-0.963l0,0l2.893-2.893l0,0L7.831,4.938c0.799-0.799,2.094-0.799,2.893,0
	l2.893,2.893L12.17,9.277L9.277,6.384L8.554,7.107L7.107,5.662L5.661,7.107l1.446,1.446L8.381,7.28l-6.336,6.335l4.338,4.34
	l1.447-1.446l1.446,1.446l2.893-2.894c-0.799,0.799-2.094,0.799-2.893,0l-2.893-2.893l1.447-1.446l2.893,2.892l7.233-7.231
	l-4.34-4.338L12.17,3.492l-1.447-1.446L12.17,0.6c0.799-0.799,2.095-0.799,2.893,0l4.339,4.339C20.2,5.737,20.2,7.032,19.401,7.831z
	 M5.661,7.107l1.207-1.206L5.661,7.107L5.661,7.107z"/>
</svg>
