<?xml version="1.0" encoding="utf-8"?>
<!-- Generator: Adobe Illustrator 16.0.0, SVG Export Plug-In . SVG Version: 6.00 Build 0)  -->
<!DOCTYPE svg PUBLIC "-//W3C//DTD SVG 1.1//EN" "http://www.w3.org/Graphics/SVG/1.1/DTD/svg11.dtd">
<svg version="1.1" id="Online_Icon" xmlns="http://www.w3.org/2000/svg" xmlns:xlink="http://www.w3.org/1999/xlink" x="0px"
	 y="0px" width="20px" height="20px" viewBox="0 0 20 20" enable-background="new 0 0 20 20" xml:space="preserve">
<g>
	<path fill="#9A9FBF" d="M3,2c0.552,0,1,0.448,1,1S3.552,4,3,4S2,3.552,2,3S2.448,2,3,2 M3,0C1.343,0,0,1.343,0,3
		c0,1.656,1.343,3,3,3s3-1.344,3-3C6,1.343,4.657,0,3,0L3,0z"/>
</g>
<g>
	<rect x="9.008" y="18.001" fill="#9A9FBF" width="2" height="2"/>
	<path fill="#9A9FBF" d="M2.008,10.001c0-0.681,0.094-1.338,0.254-1.97H0.195C0.069,8.666,0,9.321,0,9.993
		c0,4.479,2.947,8.267,7.008,9.539v-2.119C4.077,16.227,2.008,13.357,2.008,10.001z"/>
	<rect x="13.008" y="8" fill="#9A9FBF" width="2" height="2.001"/>
	<rect x="5.007" y="8.031" fill="#9A9FBF" width="2" height="1.97"/>
	<path fill="#9A9FBF" d="M10,0C9.315,0,8.646,0.069,8,0.201v2.063C8.643,2.098,9.313,2,10.008,2c4.418,0,8,3.582,8,8.001
		c0,3.356-2.07,6.226-5,7.412v2.11C17.061,18.249,20,14.465,20,9.993C20,4.475,15.521,0,10,0z"/>
	<path fill="#9A9FBF" d="M6.999,12.104c0,1.047,1.341,1.895,2.996,1.895s2.996-0.848,2.996-1.895v-0.101H6.999V12.104z"/>
</g>
</svg>
