<?xml version="1.0" encoding="utf-8"?>
<!-- Generator: Adobe Illustrator 16.0.0, SVG Export Plug-In . SVG Version: 6.00 Build 0)  -->
<!DOCTYPE svg PUBLIC "-//W3C//DTD SVG 1.1//EN" "http://www.w3.org/Graphics/SVG/1.1/DTD/svg11.dtd">
<svg version="1.1" id="Phone_Icon" xmlns="http://www.w3.org/2000/svg" xmlns:xlink="http://www.w3.org/1999/xlink" x="0px" y="0px"
	 width="20px" height="20px" viewBox="0 0 20 20" enable-background="new 0 0 20 20" xml:space="preserve">
<path fill-rule="evenodd" clip-rule="evenodd" fill="#9A9FBF" d="M15,20H5c-1.104,0-2-0.896-2-2v-4v-2V2c0-1.104,0.896-2,2-2h10
	c1.104,0,2,0.896,2,2v2h-2V2H5v10h10v-2h2v2v2v4C17,19.104,16.104,20,15,20z M15,14H5v4h10V14z M11,17H9v-2h2V17z M15,6h2v2h-2V6z"
	/>
</svg>
