<?xml version="1.0" encoding="utf-8"?>
<!-- Generator: Adobe Illustrator 16.0.0, SVG Export Plug-In . SVG Version: 6.00 Build 0)  -->
<!DOCTYPE svg PUBLIC "-//W3C//DTD SVG 1.1//EN" "http://www.w3.org/Graphics/SVG/1.1/DTD/svg11.dtd">
<svg version="1.1" id="Project_Icon" xmlns="http://www.w3.org/2000/svg" xmlns:xlink="http://www.w3.org/1999/xlink" x="0px"
	 y="0px" width="20px" height="20px" viewBox="0 0 20 20" enable-background="new 0 0 20 20" xml:space="preserve">
<polygon fill="#9A9FBF" points="4,7 4,2 7.172,2 8.586,3.414 9.172,4 10,4 16,4 16,6 16,7 18,7 18,6 18,2 16,2 10,2 8,0 2,0 2,7 "/>
<path fill="#9A9FBF" d="M18,6h-3.969l-2,4h-4L5.938,6H2C0.896,6,0,6.896,0,8v10c0,1.104,0.896,2,2,2h5v-2H2V8h2.727l1.532,2.928
	L6.821,12h1.21h4h1.236l0.553-1.105L15.268,8H18v10h-5v2h5c1.104,0,2-0.896,2-2V8C20,6.896,19.104,6,18,6z"/>
<rect x="7" y="14" fill="#9A9FBF" width="6" height="2"/>
<rect x="9" y="18" fill="#9A9FBF" width="2" height="2"/>
</svg>
