<?xml version="1.0" encoding="utf-8"?>
<!-- Generator: Adobe Illustrator 16.0.0, SVG Export Plug-In . SVG Version: 6.00 Build 0)  -->
<!DOCTYPE svg PUBLIC "-//W3C//DTD SVG 1.1//EN" "http://www.w3.org/Graphics/SVG/1.1/DTD/svg11.dtd">
<svg version="1.1" id="Read_Icon" xmlns="http://www.w3.org/2000/svg" xmlns:xlink="http://www.w3.org/1999/xlink" x="0px" y="0px"
	 width="20px" height="20px" viewBox="0 0 20 20" enable-background="new 0 0 20 20" xml:space="preserve">
<rect x="9" y="15" fill-rule="evenodd" clip-rule="evenodd" fill="#9A9FBF" width="2" height="2"/>
<path fill="#9A9FBF" d="M10,3C4.477,3,0,10,0,10s2.943,4.6,7,6.341v-2.235c-1.862-1.044-3.515-2.795-4.542-4.108
	C4.011,8.003,6.995,5,10,5c2.988,0,5.983,3.009,7.542,5.003c-1.025,1.316-2.675,3.067-4.542,4.109v2.229C17.057,14.6,20,10,20,10
	S15.522,3,10,3z"/>
<g>
	<g>
		<path fill-rule="evenodd" clip-rule="evenodd" fill="#9A9FBF" d="M10,7c-1.657,0-3,1.343-3,3c0,1.657,1.343,3,3,3
			c1.657,0,3-1.343,3-3C13,8.343,11.657,7,10,7z M11,11H9V9h2V11z"/>
	</g>
</g>
</svg>
