<?xml version="1.0" encoding="utf-8"?>
<!-- Generator: Adobe Illustrator 16.0.0, SVG Export Plug-In . SVG Version: 6.00 Build 0)  -->
<!DOCTYPE svg PUBLIC "-//W3C//DTD SVG 1.1//EN" "http://www.w3.org/Graphics/SVG/1.1/DTD/svg11.dtd">
<svg version="1.1" id="Rss_Icon" xmlns="http://www.w3.org/2000/svg" xmlns:xlink="http://www.w3.org/1999/xlink" x="0px" y="0px"
	 width="20px" height="20px" viewBox="0 0 20 20" enable-background="new 0 0 20 20" xml:space="preserve">
<g>
	<g>
		<path fill-rule="evenodd" clip-rule="evenodd" fill="#9A9FBF" d="M3,14c-1.657,0-3,1.343-3,3s1.343,3,3,3s3-1.343,3-3
			S4.657,14,3,14z M4,18H2v-2h2V18z M3,4C1.966,4,0.965,4.134,0,4.362v2.063C0.955,6.154,1.958,6,3,6c6.075,0,11,4.925,11,11
			c0,1.041-0.154,2.045-0.425,3h2.063C15.866,19.035,16,18.034,16,17C16,9.82,10.18,4,3,4z M18,18v2h2v-2H18z M3,0
			C1.975,0,0.976,0.106,0,0.28v2.021C0.969,2.104,1.973,2,3,2c7.946,0,14.433,6.184,14.949,14h2C19.429,7.079,12.051,0,3,0z M3,8
			C1.946,8,0.939,8.19,0,8.523v2.176C0.912,10.264,1.921,10,3,10c3.866,0,7,3.134,7,7c0,1.078-0.264,2.088-0.699,3h2.176
			C11.81,19.061,12,18.054,12,17C12,12.029,7.971,8,3,8z"/>
	</g>
</g>
</svg>
