<?xml version="1.0" encoding="utf-8"?>
<!-- Generator: Adobe Illustrator 16.0.0, SVG Export Plug-In . SVG Version: 6.00 Build 0)  -->
<!DOCTYPE svg PUBLIC "-//W3C//DTD SVG 1.1//EN" "http://www.w3.org/Graphics/SVG/1.1/DTD/svg11.dtd">
<svg version="1.1" id="Shop_Bag_Icon" xmlns="http://www.w3.org/2000/svg" xmlns:xlink="http://www.w3.org/1999/xlink" x="0px"
	 y="0px" width="20px" height="20px" viewBox="0 0 20 20" enable-background="new 0 0 20 20" xml:space="preserve">
<g>
	<g>
		<path fill-rule="evenodd" clip-rule="evenodd" fill="#9A9FBF" d="M13,19.999h6L18,4h-4c0-2.209-1.791-4-4-4S6,1.791,6,4H2
			L1,19.999h6V18H3L4,6h2v1.999h2V6h4v1.999h2V6h2l1,12h-4V19.999z M8,4c0-1.104,0.896-2,2-2s2,0.896,2,2H8z M9,20h2v-2H9V20z"/>
	</g>
</g>
</svg>
