<?xml version="1.0" encoding="utf-8"?>
<!-- Generator: Adobe Illustrator 16.0.0, SVG Export Plug-In . SVG Version: 6.00 Build 0)  -->
<!DOCTYPE svg PUBLIC "-//W3C//DTD SVG 1.1//EN" "http://www.w3.org/Graphics/SVG/1.1/DTD/svg11.dtd">
<svg version="1.1" id="Subscriptions_Icon" xmlns="http://www.w3.org/2000/svg" xmlns:xlink="http://www.w3.org/1999/xlink" x="0px"
	 y="0px" width="20px" height="20px" viewBox="0 0 20 20" enable-background="new 0 0 20 20" xml:space="preserve">
<path fill-rule="evenodd" clip-rule="evenodd" fill="#9A9FBF" d="M8,16c0,1.104,0.896,2,2,2s2-0.896,2-2h2c0,2.209-1.791,4-4,4
	s-4-1.791-4-4H8z"/>
<path fill="#9A9FBF" d="M17,10V7c0-2.791-1.637-5.193-4-6.317v2.343C14.207,3.939,15,5.373,15,7v3v2h2c0.552,0,1,0.448,1,1
	s-0.448,1-1,1H3c-0.551,0-1-0.448-1-1s0.449-1,1-1h2v-2V7c0-1.627,0.793-3.061,2-3.975V0.683C4.637,1.807,3,4.209,3,7v3
	c-1.657,0-3,1.343-3,3s1.343,3,3,3h14c1.657,0,3-1.343,3-3S18.657,10,17,10z"/>
<rect x="9" fill="#9A9FBF" width="2" height="2"/>
</svg>
