<?xml version="1.0" encoding="utf-8"?>
<!-- Generator: Adobe Illustrator 16.0.0, SVG Export Plug-In . SVG Version: 6.00 Build 0)  -->
<!DOCTYPE svg PUBLIC "-//W3C//DTD SVG 1.1//EN" "http://www.w3.org/Graphics/SVG/1.1/DTD/svg11.dtd">
<svg version="1.1" id="Tag_-_Mention_Icon" xmlns="http://www.w3.org/2000/svg" xmlns:xlink="http://www.w3.org/1999/xlink" x="0px"
	 y="0px" width="20px" height="20px" viewBox="0 0 20 20" enable-background="new 0 0 20 20" xml:space="preserve">
<path fill="#9A9FBF" d="M14,5c0.552,0,1,0.449,1,1s-0.448,1-1,1s-1-0.449-1-1S13.448,5,14,5 M14,3c-1.656,0-3,1.343-3,3s1.344,3,3,3
	s3-1.343,3-3S15.656,3,14,3L14,3z"/>
<rect x="18" fill="#9A9FBF" width="2" height="2"/>
<polygon fill="#9A9FBF" points="18,4 18,8.396 9.224,17.167 2.829,10.763 11.58,2 12,2 16,2 16,0 10.76,0 0.002,10.765 
	9.225,19.998 20,9.224 20,4 "/>
</svg>
