<?xml version="1.0" encoding="utf-8"?>
<!-- Generator: Adobe Illustrator 16.0.0, SVG Export Plug-In . SVG Version: 6.00 Build 0)  -->
<!DOCTYPE svg PUBLIC "-//W3C//DTD SVG 1.1//EN" "http://www.w3.org/Graphics/SVG/1.1/DTD/svg11.dtd">
<svg version="1.1" id="Topics_Started_-_Paper_Icon"
	 xmlns="http://www.w3.org/2000/svg" xmlns:xlink="http://www.w3.org/1999/xlink" x="0px" y="0px" width="20px" height="20px"
	 viewBox="0 0 20 20" enable-background="new 0 0 20 20" xml:space="preserve">
<path fill-rule="evenodd" clip-rule="evenodd" fill="#9A9FBF" d="M17,11.999V6.002l0,0h-4v-4H3V6H1V3.002v-3h2h12v4h2V2h-2V0h2h2v2
	v9.999H17z M3,10.002H1v-2h2V10.002z M15,16.001H5v-2h10V16.001z M5,6.001h6v2H5V6.001z M15,12.002H5v-2h10V12.002z M3,18.001h14v-6
	h2v6C19,19.105,18.104,20,17,20H3c-1.104,0-2-0.895-2-1.999v-6.002h2V18.001z"/>
</svg>
