<?xml version="1.0" encoding="utf-8"?>
<!-- Generator: Adobe Illustrator 16.0.0, SVG Export Plug-In . SVG Version: 6.00 Build 0)  -->
<!DOCTYPE svg PUBLIC "-//W3C//DTD SVG 1.1//EN" "http://www.w3.org/Graphics/SVG/1.1/DTD/svg11.dtd">
<svg version="1.1" id="Trashcan_Iicon" xmlns="http://www.w3.org/2000/svg" xmlns:xlink="http://www.w3.org/1999/xlink" x="0px"
	 y="0px" width="20px" height="18px" viewBox="0 0 20 18" enable-background="new 0 0 20 18" xml:space="preserve">
<g>
	<g>
		<path fill-rule="evenodd" clip-rule="evenodd" fill="#9A9FBF" d="M15,2V0h-2H7H5v2H0v2h2v12c0,1.104,0.896,2,2,2h3v-2H4V4h1h2V2h6
			v2h2h1v12h-3v2h3c1.104,0,2-0.896,2-2V4h2V2H15z M9,18h2v-2H9V18z M9,6H7v8h2V6z M13,6h-2v8h2V6z"/>
	</g>
</g>
</svg>
