<?xml version="1.0" encoding="utf-8"?>
<!-- Generator: Adobe Illustrator 16.0.0, SVG Export Plug-In . SVG Version: 6.00 Build 0)  -->
<!DOCTYPE svg PUBLIC "-//W3C//DTD SVG 1.1//EN" "http://www.w3.org/Graphics/SVG/1.1/DTD/svg11.dtd">
<svg version="1.1" id="Unread_Icon" xmlns="http://www.w3.org/2000/svg" xmlns:xlink="http://www.w3.org/1999/xlink" x="0px"
	 y="0px" width="20px" height="20px" viewBox="0 0 20 20" enable-background="new 0 0 20 20" xml:space="preserve">
<rect x="9" y="15" fill-rule="evenodd" clip-rule="evenodd" fill="#9A9FBF" width="2" height="2"/>
<path fill-rule="evenodd" clip-rule="evenodd" fill="#9A9FBF" d="M11,0h2L5,20H3L11,0z"/>
<path fill-rule="evenodd" clip-rule="evenodd" fill="#9A9FBF" d="M10.417,12.958C11.875,12.754,13,11.515,13,10
	c0-0.704-0.252-1.343-0.658-1.854L10.417,12.958z"/>
<g>
	<path fill="#9A9FBF" d="M7,5.888V3.659C2.943,5.4,0,10,0,10s1.149,1.795,3,3.566v-2.911c-0.194-0.227-0.379-0.449-0.542-0.659
		C3.483,8.681,5.133,6.929,7,5.888z"/>
	<path fill="#9A9FBF" d="M13,3.659v2.236c1.862,1.044,3.515,2.794,4.542,4.108c-1.025,1.316-2.675,3.067-4.542,4.109v2.229
		C17.057,14.6,20,10,20,10S17.057,5.401,13,3.659z"/>
</g>
</svg>
