<?xml version="1.0" encoding="utf-8"?>
<!-- Generator: Adobe Illustrator 16.0.0, SVG Export Plug-In . SVG Version: 6.00 Build 0)  -->
<!DOCTYPE svg PUBLIC "-//W3C//DTD SVG 1.1//EN" "http://www.w3.org/Graphics/SVG/1.1/DTD/svg11.dtd">
<svg version="1.1" id="User_Icon" xmlns="http://www.w3.org/2000/svg" xmlns:xlink="http://www.w3.org/1999/xlink" x="0px" y="0px"
	 width="20px" height="20px" viewBox="0 0 20 20" enable-background="new 0 0 20 20" xml:space="preserve">
<path fill="#9A9FBF" d="M10,2c1.654,0,3,1.346,3,3s-1.346,3-3,3S7,6.654,7,5S8.346,2,10,2 M10,0C7.239,0,5,2.239,5,5
	c0,2.762,2.239,5,5,5c2.762,0,5-2.238,5-5C15,2.239,12.762,0,10,0L10,0z"/>
<rect x="9" y="18" fill="#9A9FBF" width="2" height="2"/>
<path fill="#9A9FBF" d="M15,12H5c-2.209,0-4,1.791-4,4v4h6v-2H3v-2c0-1.104,0.897-2,2-2h10c1.104,0,2,0.896,2,2v2h-4v2h6v-4
	C19,13.791,17.209,12,15,12z"/>
</svg>
