<?xml version="1.0" encoding="utf-8"?>
<!-- Generator: Adobe Illustrator 16.0.0, SVG Export Plug-In . SVG Version: 6.00 Build 0)  -->
<!DOCTYPE svg PUBLIC "-//W3C//DTD SVG 1.1//EN" "http://www.w3.org/Graphics/SVG/1.1/DTD/svg11.dtd">
<svg version="1.1" id="Verified_Users_Icon" xmlns="http://www.w3.org/2000/svg" xmlns:xlink="http://www.w3.org/1999/xlink"
	 x="0px" y="0px" width="20px" height="20px" viewBox="0 0 20 20" enable-background="new 0 0 20 20" xml:space="preserve">
<g>
	<g>
		<path fill="#9A9FBF" d="M10,0C4.477,0,0,4.475,0,9.993c0,4.479,2.947,8.267,7.008,9.539v-2.119c-2.931-1.187-5-4.056-5-7.412
			c0-4.419,3.582-8.001,8-8.001s8,3.582,8,8.001c0,3.356-2.07,6.226-5,7.412v2.11C17.061,18.249,20,14.465,20,9.993
			C20,4.475,15.521,0,10,0z M9.008,20.001h2v-2h-2V20.001z"/>
	</g>
</g>
<polygon fill="#9A9FBF" points="8.583,13.5 7.167,12.1 12.833,6.5 14.25,7.9 "/>
<polygon fill="#9A9FBF" points="5.75,10.7 8.583,13.5 10,12.1 7.167,9.3 "/>
</svg>
