<?xml version="1.0" encoding="utf-8"?>
<!-- Generator: Adobe Illustrator 16.0.0, SVG Export Plug-In . SVG Version: 6.00 Build 0)  -->
<!DOCTYPE svg PUBLIC "-//W3C//DTD SVG 1.1//EN" "http://www.w3.org/Graphics/SVG/1.1/DTD/svg11.dtd">
<svg version="1.1" id="Capa_1" xmlns="http://www.w3.org/2000/svg" xmlns:xlink="http://www.w3.org/1999/xlink" x="0px" y="0px"
	 width="18px" height="18px" viewBox="0 0 18 18" enable-background="new 0 0 18 18" xml:space="preserve">
<g>
	<g>
		<path fill-rule="evenodd" clip-rule="evenodd" fill="#9A9FBF" d="M4,2.183V0H2v2.184C0.837,2.597,0,3.695,0,5s0.837,2.403,2,2.816
			v6.184h2V7.815C5.163,7.402,6,6.304,6,5S5.163,2.597,4,2.183z M4,6H2v-2h2V6z M16,2.183V0h-2v2.184C12.838,2.597,12,3.695,12,5
			s0.838,2.402,2,2.816V18h2V7.815C17.162,7.402,18,6.304,18,5S17.162,2.597,16,2.183z M16,6h-2v-2h2V6z M10,10.184V0H8v10.184
			C6.837,10.597,6,11.695,6,13c0,1.304,0.837,2.402,2,2.816V18h2v-2.184c1.162-0.414,2-1.513,2-2.816
			C12,11.695,11.162,10.597,10,10.184z M10,13.999H8V12h2V13.999z M2,18h2v-2H2V18z"/>
	</g>
</g>
</svg>
